<?xml version="1.0" encoding="UTF-8"?>
<svg width="62px" height="62px" viewBox="0 0 62 62" version="1.1" xmlns="http://www.w3.org/2000/svg" xmlns:xlink="http://www.w3.org/1999/xlink">
    <!-- Generator: Sketch 47.1 (45422) - http://www.bohemiancoding.com/sketch -->
    <title>002-speech-bubble</title>
    <desc>Created with Sketch.</desc>
    <defs></defs>
    <g id="Symbols" stroke="none" stroke-width="1" fill="none" fill-rule="evenodd">
        <g id="002-speech-bubble" fill="#A97EB1">
            <path d="M52.9126104,9.084 C40.8002285,-3.028 21.1757537,-3.028 9.07609618,9.084 C-2.57256838,20.7322911 -3.01051474,39.3644027 7.77433726,51.5413123 L8.09647507,51.7991789 C6.92421556,54.3246933 4.91407557,57.4427695 1.71846842,59.0144512 C0.661373176,59.5303455 0.906842193,61.1020273 2.06637727,61.2825822 C5.55835121,61.8236028 10.5709767,61.2178337 15.2482568,57.6875897 L15.3123622,57.7391309 C27.193127,64.7227903 42.7330554,63.125338 52.9383814,52.9197149 C65.0248313,40.8209223 65.0248313,21.1834369 52.9126104,9.084 Z M40.2503812,43.6706461 C39.5787772,44.3548434 38.8686646,44.9882128 38.234777,45.6975866 C37.3093011,46.7361541 36.1431064,47.0651895 34.8246201,46.9896602 C32.8976018,46.8883211 31.1097218,46.2419676 29.3982252,45.4062367 C25.5823803,43.5563229 22.323881,40.9850014 19.5983227,37.7421499 C17.5827186,35.3478551 15.9219331,32.7388481 14.8188101,29.7873465 C14.2863445,28.3554566 13.9063289,26.8988652 14.0202702,25.3537605 C14.0963367,24.4037064 14.4509968,23.5928352 15.1487486,22.9216219 C15.9089384,22.1992641 16.6188925,21.4520465 17.3673553,20.7171796 C18.3435422,19.7547748 19.560448,19.7671255 20.5367933,20.7171796 C21.145167,21.3128635 21.7283436,21.9079141 22.323881,22.5035981 C22.9070576,23.0861396 23.4900757,23.6558554 24.0608915,24.2385553 C25.0747948,25.2646138 25.0747948,26.4553483 24.0608915,27.4814068 C23.3384181,28.2162736 22.6154693,28.9509822 21.8676404,29.6605143 C21.6776326,29.8503668 21.6522771,30.0025338 21.7536991,30.2432142 C22.2352952,31.4084556 22.9454078,32.4474981 23.7315869,33.4100613 C25.3163059,35.3608392 27.1163883,37.0964297 29.2712892,38.4391729 C29.7281637,38.7305229 30.2351154,38.9328844 30.7167115,39.1987412 C30.9574303,39.3385575 31.1352358,39.287888 31.3252436,39.0848931 C32.0475585,38.3378338 32.7960213,37.6029669 33.5314894,36.8681001 C34.5076763,35.9056952 35.7245821,35.9056952 36.6879328,36.8681001 C37.879483,38.0464839 39.0588309,39.224076 40.2380204,40.4148105 C41.2519236,41.4538531 41.2519236,42.6699224 40.2503812,43.6706461 Z M30,23.8674026 L30.3936473,21 C33.1073881,21.3885505 35.5720266,22.6479903 37.512403,24.6309379 C39.3611686,26.5202649 40.5673485,28.8917631 41,31.5040956 L38.2075952,32 C37.8663905,29.9771924 36.9355343,28.1414586 35.5068012,26.6812119 C33.9990763,25.1399056 32.097868,24.1618301 30,23.8674026 Z M45.2056524,31 C44.5759034,27.442577 42.8444214,24.2153421 40.2070191,21.6488009 C37.4254633,18.9550444 33.8962445,17.2526462 30,16.7191678 L30.3934292,14 C34.8936752,14.6098712 38.9872082,16.5795645 42.2012245,19.7051542 C45.2581315,22.6655705 47.2652927,26.4134194 48,30.5303674 L45.2056524,31 Z"></path>
        </g>
    </g>
</svg>