<?xml version="1.0" encoding="UTF-8"?>
<svg width="45px" height="59px" viewBox="0 0 45 59" version="1.1" xmlns="http://www.w3.org/2000/svg" xmlns:xlink="http://www.w3.org/1999/xlink">
    <!-- Generator: Sketch 47.1 (45422) - http://www.bohemiancoding.com/sketch -->
    <title>accreditations-icon</title>
    <desc>Created with Sketch.</desc>
    <defs></defs>
    <g id="Page-1" stroke="none" stroke-width="1" fill="none" fill-rule="evenodd">
        <g id="About" transform="translate(-1033.000000, -1531.000000)" fill="#A97EB1">
            <g id="accreditations-icon" transform="translate(1033.000000, 1531.000000)">
                <path d="M31.3459524,41.0605441 C29.1283587,42.1453264 26.7215261,42.8200204 24.253423,43.0376683 C24.244568,43.0382444 24.2355702,43.0393968 24.2267153,43.0399729 C24.1078876,43.0506321 23.9890599,43.0591306 23.8702321,43.067485 C23.8193876,43.070942 23.7692571,43.074255 23.7189839,43.0771359 C23.6247215,43.0827535 23.5304591,43.087795 23.4360539,43.0922603 C23.3519319,43.0962935 23.2676671,43.0996064 23.1828309,43.1024873 C23.1142765,43.1046479 23.0455792,43.1075288 22.9764534,43.1091132 C22.8179213,43.1131464 22.6589606,43.1153071 22.5,43.1153071 C22.3410394,43.1153071 22.1819359,43.1125703 22.0241178,43.1091132 C21.9548493,43.1075288 21.8862948,43.1046479 21.8171691,43.1024873 C21.7329042,43.0996064 21.6480681,43.0962935 21.5643745,43.0922603 C21.4701122,43.0883712 21.3752785,43.0827535 21.2810161,43.0771359 C21.2307429,43.0736788 21.1804696,43.070942 21.1303392,43.067485 C21.0109401,43.0591306 20.8921124,43.0506321 20.7732847,43.0399729 C20.7642869,43.0393968 20.7560033,43.0388206 20.7470055,43.0376683 C18.2756175,42.8200204 15.8649287,42.1435979 13.6450498,41.0560788 C6.90443319,37.7369129 2.25058557,30.7524475 2.25058557,22.6922745 C2.25001428,11.4311942 11.3341934,2.26924185 22.5,2.26924185 C33.6656637,2.26924185 42.7499857,11.4311942 42.7499857,22.6922745 C42.7499857,30.7564807 38.0909965,37.7431067 31.3459524,41.0605441 M22.5,53.3266073 C22.4084512,53.3266073 22.316474,53.3378426 22.2272104,53.3603132 L10.1246358,56.4117045 L10.1246358,41.6434832 C10.9437187,42.1869547 11.7960791,42.6742496 12.6748615,43.1034956 C12.7551273,43.1435393 12.8361072,43.1817105 12.9169444,43.2200258 C12.954935,43.2380311 12.993354,43.2560363 13.0319159,43.2740416 C15.3192067,44.348741 17.813589,45.0464817 20.4373679,45.2877525 C20.4440805,45.2889048 20.4507931,45.289481 20.4575058,45.2900572 C20.6745949,45.309791 20.8921124,45.3260677 21.1107726,45.3396077 C21.164902,45.3434969 21.2190315,45.34753 21.2731609,45.3502668 C21.3472854,45.354156 21.4215528,45.357613 21.4958201,45.3603498 C21.6017938,45.3655353 21.7083389,45.3694245 21.8143126,45.3727374 C21.8740121,45.3744659 21.9331404,45.3767706 21.9928399,45.3777789 C22.1619409,45.3818121 22.3303277,45.3839727 22.5,45.3839727 C22.6689582,45.3839727 22.8380591,45.3818121 23.0065888,45.3777789 C23.0662883,45.3767706 23.1254166,45.3744659 23.1851161,45.3727374 C23.2916611,45.3694245 23.3976349,45.3655353 23.5041799,45.3603498 C23.577876,45.357613 23.6520005,45.354156 23.7262678,45.3502668 C23.7809685,45.34753 23.8349552,45.3429207 23.8896559,45.3396077 C24.1078876,45.3260677 24.3254051,45.309791 24.541923,45.2900572 C24.5486356,45.2889048 24.5552054,45.2883287 24.561918,45.2877525 C26.5888447,45.1010737 28.5380763,44.6430193 30.3747643,43.9487356 L30.3747643,47.6537908 C30.3747643,48.2800865 30.8784968,48.7881236 31.4999143,48.7881236 C32.1209034,48.7881236 32.6246358,48.2800865 32.6246358,47.6537908 L32.6246358,42.9538357 C33.3978729,42.5617526 34.1494011,42.1245844 34.8746501,41.6434832 L34.8746501,56.4117045 L22.7727896,53.3603132 C22.6829547,53.3378426 22.5914059,53.3266073 22.5,53.3266073 M22.5,0 C10.0935007,0 0,10.179755 0,22.6922745 C0,29.578215 3.05781426,35.7567639 7.87462152,39.9221781 L7.87462152,57.865091 C7.87462152,58.2145375 8.03486756,58.5442503 8.30765715,58.7597375 C8.58044675,58.9746486 8.9369299,59.0505588 9.27284672,58.9655739 L22.5,55.6307074 L35.726582,58.9661501 C35.8169882,58.9887647 35.9085369,59 35.9999429,59 C36.2481671,59 36.4925352,58.9167436 36.6923428,58.7597375 C36.9651324,58.5448264 37.1246644,58.2145375 37.1246644,57.865091 L37.1246644,39.9221781 C41.9421857,35.7567639 45,29.578215 45,22.6922745 C45,10.179755 34.9064993,0 22.5,0" id="Fill-1"></path>
                <path d="M22,38.6922791 C13.3126302,38.6922791 6.2453501,31.4286857 6.2453501,22.5 C6.2453501,13.5713143 13.3126302,6.30772093 22,6.30772093 C30.6867997,6.30772093 37.7546499,13.5713143 37.7546499,22.5 C37.7546499,31.4286857 30.6873698,38.6922791 22,38.6922791 M22,4 C12.0743668,4 4,12.2988012 4,22.5 C4,32.7007593 12.0749369,41 22,41 C31.9250631,41 40,32.7007593 40,22.5 C40,12.2988012 31.9250631,4 22,4" id="Fill-3"></path>
                <path d="M25.6618274,24.0247034 C25.3986904,24.2799884 25.2786057,24.6467932 25.340562,25.0065576 L26.0067693,28.8634297 L22.5194952,27.042219 C22.3565941,26.9575933 22.1783812,26.9152101 22.0000265,26.9152101 C21.8211046,26.9152101 21.6427499,26.9575933 21.4799906,27.042219 L17.9925747,28.8634297 L18.658782,25.0065576 C18.7208801,24.6467932 18.6006537,24.2799884 18.3376585,24.0247034 L15.5164499,21.293873 L19.4153009,20.7312042 C19.7792409,20.6784012 20.093701,20.4517004 20.2560349,20.1244626 L22.0000265,16.6152455 L23.7434509,20.1238993 C23.9062102,20.4517004 24.2202449,20.6784012 24.5840432,20.7312042 L28.4828942,21.293873 L25.6618274,24.0247034 Z M31.9453575,20.1761391 C31.8136472,19.7752587 31.4641684,19.4820964 31.0438013,19.421549 L25.4868753,18.6196474 L23.0012514,13.6181471 C22.8129723,13.239796 22.4247886,13 22.0000265,13 C21.5746973,13 21.1863717,13.239796 20.9986597,13.6181471 L18.5131776,18.6196474 L12.9562516,19.421549 C12.5353175,19.4820964 12.1858386,19.7752587 12.0545537,20.1761391 C11.9234105,20.5777235 12.0330037,21.018875 12.3371141,21.3131637 L16.3583181,25.2062234 L15.4089833,30.703227 C15.3371027,31.1195963 15.509361,31.5397674 15.8531688,31.7878711 C16.1971184,32.036538 16.6534966,32.0689239 17.0294876,31.8726375 L22.0000265,29.2769828 L26.9704235,31.8726375 C27.1338917,31.9578264 27.3122464,31.9996463 27.4898923,31.9996463 C27.7214131,31.9996463 27.9517998,31.9281159 28.1461752,31.7878711 C28.4901248,31.5397674 28.6623831,31.1195963 28.5909278,30.703227 L27.6417348,25.2062234 L31.6629389,21.3131637 C31.9670492,21.018875 32.0766424,20.5782867 31.9453575,20.1761391 L31.9453575,20.1761391 Z" id="Fill-5"></path>
                <path d="M31.9801942,50.8049276 C31.96826,50.7409195 31.9479464,50.6779274 31.9231892,50.6178562 C31.898432,50.5568961 31.8671999,50.498857 31.8308894,50.4447549 C31.7952136,50.3896368 31.7530629,50.3385827 31.7069764,50.2929896 C31.6612709,50.2467615 31.610233,50.2045974 31.5552593,50.1684023 C31.5011744,50.1316993 31.4431537,50.1014732 31.382086,50.0767082 C31.3221609,50.0518161 31.2590618,50.0314961 31.1952009,50.018669 C31.0662096,49.993777 30.9342982,49.993777 30.8053069,50.018669 C30.7413191,50.0314961 30.678347,50.0518161 30.6174062,50.0767082 C30.5568463,50.1014732 30.4993335,50.1316993 30.4452485,50.1684023 C30.389767,50.2045974 30.33911,50.2467615 30.2930236,50.2929896 C30.2469371,50.3385827 30.2052942,50.3896368 30.168095,50.4447549 C30.1319114,50.498857 30.1020758,50.5568961 30.0768108,50.6178562 C30.0520536,50.6779274 30.0321209,50.7409195 30.0187901,50.8049276 C30.0058402,50.8689357 30,50.9348489 30,50.999873 C30,51.2632715 30.1070272,51.521336 30.2930236,51.7072644 C30.33911,51.7529845 30.3902749,51.7951486 30.4452485,51.8313437 C30.4993335,51.8670307 30.5573542,51.8982728 30.6174062,51.9231648 C30.678347,51.9484379 30.7413191,51.9682499 30.8053069,51.980188 C30.8692947,51.993015 30.9353139,52 31.0001904,52 C31.0651939,52 31.1312131,51.993015 31.1952009,51.980188 C31.2590618,51.9682499 31.3221609,51.9484379 31.382086,51.9231648 C31.4431537,51.8982728 31.5011744,51.8670307 31.5552593,51.8313437 C31.610233,51.7951486 31.6612709,51.7529845 31.7074843,51.7072644 C31.7530629,51.6611633 31.7952136,51.6101092 31.8313972,51.5549911 C31.8671999,51.500889 31.898432,51.4428499 31.9231892,51.3818898 C31.9479464,51.3218186 31.96826,51.2588265 31.9801942,51.1948184 C31.9931442,51.1308103 32,51.0648971 32,50.999873 C32,50.9348489 31.9931442,50.8689357 31.9801942,50.8049276" id="Fill-7"></path>
            </g>
        </g>
    </g>
</svg>