<?xml version="1.0" encoding="UTF-8"?>
<svg width="34px" height="34px" viewBox="0 0 34 34" version="1.1" xmlns="http://www.w3.org/2000/svg" xmlns:xlink="http://www.w3.org/1999/xlink">
    <!-- Generator: Sketch 47.1 (45422) - http://www.bohemiancoding.com/sketch -->
    <title>call</title>
    <desc>Created with Sketch.</desc>
    <defs></defs>
    <g id="Symbols" stroke="none" stroke-width="1" fill="none" fill-rule="evenodd">
        <g id="call" fill="#A97EB1">
            <path d="M29.0165928,4.98154839 C22.3743188,-1.66051613 11.6125101,-1.66051613 4.97721403,4.98154839 C-1.4107633,11.3693209 -1.65092744,21.5869305 4.26334624,28.2645906 L4.44000246,28.4060013 C3.79715047,29.7909609 2.69481564,31.5008736 0.94238591,32.3627636 C0.362688516,32.6456734 0.497300557,33.5075633 1.13317463,33.6065774 C3.04812808,33.9032661 5.79698723,33.5710701 8.36194726,31.6351299 L8.39710185,31.6633943 C14.91236,35.4931431 23.4342562,34.6171208 29.0307253,29.0204888 C35.6587784,22.385667 35.6587784,11.6167234 29.0165928,4.98154839 Z M22.5835451,24.1503589 C22.2104318,24.5304686 21.8159248,24.8823405 21.463765,25.276437 C20.9496117,25.853419 20.3017258,26.0362164 19.5692334,25.9942557 C18.4986677,25.9379562 17.505401,25.5788709 16.5545696,25.1145759 C14.4346557,24.0868461 12.6243783,22.6583341 11.1101793,20.8567499 C9.99039922,19.5265862 9.06774058,18.0771378 8.45489452,16.4374147 C8.1590803,15.6419203 7.94796051,14.8327029 8.01126123,13.9743114 C8.0535204,13.4465035 8.2505538,12.9960195 8.63819369,12.6231233 C9.06052131,12.2218134 9.45494027,11.8066925 9.87075293,11.3984331 C10.413079,10.8637638 11.0891378,10.8706253 11.6315519,11.3984331 C11.9695372,11.7293686 12.2935242,12.0599523 12.6243783,12.3908878 C12.9483653,12.714522 13.2722643,13.0310308 13.5893842,13.3547529 C14.1526638,13.9247854 14.1526638,14.5863046 13.5893842,15.1563371 C13.1880101,15.5645965 12.7863718,15.9727679 12.3709113,16.3669524 C12.2653514,16.472426 12.251265,16.5569632 12.3076106,16.6906745 C12.575164,17.3380309 12.969671,17.9152767 13.4064372,18.4500341 C14.2868366,19.5337995 15.2868824,20.4980165 16.4840496,21.243985 C16.7378687,21.405846 17.0195085,21.5182691 17.2870619,21.6659673 C17.4207946,21.7436431 17.5195754,21.7154933 17.6251353,21.6027184 C18.0264214,21.1876855 18.4422341,20.7794261 18.8508275,20.3711667 C19.3931535,19.8364973 20.0692123,19.8364973 20.6044071,20.3711667 C21.2663795,21.0258244 21.9215727,21.6800422 22.576678,22.3415614 C23.1399576,22.9188073 23.1399576,23.5944013 22.5835451,24.1503589 Z M16,13.5640378 L16.2147167,12 C17.694939,12.2119367 19.0392873,12.8989038 20.0976743,13.9805116 C21.106092,15.0110536 21.7640083,16.3045981 22,17.7295067 L20.4768701,18 C20.2907585,16.8966504 19.7830187,15.895341 19.0037097,15.0988429 C18.1813143,14.2581303 17.1442917,13.7246346 16,13.5640378 Z M24.4475847,17 C24.0977241,15.1166584 23.1357896,13.4081223 21.6705662,12.0493652 C20.1252574,10.6232588 18.1645803,9.72198918 16,9.43955941 L16.2185718,8 C18.7187084,8.32287297 20.9928935,9.36565177 22.7784581,11.0203758 C24.4767397,12.587655 25.5918293,14.5718103 26,16.751371 L24.4475847,17 Z"></path>
        </g>
    </g>
</svg>