<?xml version="1.0" encoding="UTF-8"?>
<svg width="35px" height="35px" viewBox="0 0 35 35" version="1.1" xmlns="http://www.w3.org/2000/svg" xmlns:xlink="http://www.w3.org/1999/xlink">
    <!-- Generator: Sketch 47.1 (45422) - http://www.bohemiancoding.com/sketch -->
    <title>chat</title>
    <desc>Created with Sketch.</desc>
    <defs></defs>
    <g id="Symbols" stroke="none" stroke-width="1" fill="none" fill-rule="evenodd">
        <g id="chat" fill="#A97EB1">
            <path d="M29.870022,5.12806452 C23.032387,-1.70935484 11.9540545,-1.70935484 5.12360268,5.12806452 C-1.45225634,11.7037127 -1.69948413,22.2218402 4.38873877,29.0959021 L4.57059077,29.241472 C3.90883136,30.6671656 2.77407492,32.4273699 0.970103143,33.3146096 C0.373355825,33.6058402 0.511927044,34.4930799 1.1665033,34.5950061 C3.13777891,34.900421 5.96748686,34.5584545 8.60788688,32.5655749 L8.64407543,32.5946706 C15.3509588,36.5370591 24.123499,35.6352715 29.8845702,29.8740326 C36.707566,23.044069 36.707566,11.9583918 29.870022,5.12806452 Z M25.9252,8.02542173 C27.06935,8.0257849 28,8.99181057 28,10.1790053 L28,17.8574567 C28,19.0446514 27.069,20.0106771 25.9245,20.0106771 L25.55,20.0106771 L25.55,23.6423526 C25.55,23.7923408 25.4611,23.927076 25.326,23.9811879 C25.28505,23.9975305 25.24235,24.0055201 25.2,24.0055201 C25.1034,24.0055201 25.00855,23.9637559 24.941,23.8867644 L23.1,21.7854769 L23.1,21.8265149 C23.1,23.0137096 22.169,23.9797353 21.0245,23.9797353 L15.2054,24.0044306 L11.809,27.8812442 C11.74145,27.9582357 11.6466,28 11.55,28 C11.50765,28 11.46495,27.9920103 11.424,27.9756678 C11.2889,27.9215558 11.2,27.7868206 11.2,27.6368325 L11.2,24.005157 L9.0755,24.005157 C7.931,24.005157 7,23.0394945 7,21.8519366 L7,14.1742115 C7,12.9866536 7.931,12.0206279 9.0755,12.0206279 L11.9,12.0144541 L11.9,10.1535836 C11.9,8.96602568 12.831,8 13.9755,8 L25.9252,8.02542173 Z M22.4,21.8261517 L22.4,20.8452361 L22.4,14.1480634 C22.4,13.3610793 21.78295,12.7208149 21.0245,12.7208149 L12.2507,12.7396997 C12.25035,12.7396997 12.25035,12.7396997 12.25,12.7396997 L9.0762,12.7465998 C8.31705,12.7465998 7.7,13.3868642 7.7,14.1738483 L7.7,21.8515734 C7.7,22.6381943 8.31705,23.2784587 9.0755,23.2784587 L11.55,23.2784587 C11.74355,23.2784587 11.9,23.4411578 11.9,23.6416263 L11.9,26.697318 L14.791,23.3972145 C14.8568,23.3220388 14.9506,23.2788219 15.0486,23.2784587 L21.0231,23.253037 C21.78295,23.253037 22.4,22.6131358 22.4,21.8261517 Z M27.3,17.8567304 L27.30035,17.8567304 L27.30035,10.1786421 C27.30035,9.39165804 26.6833,8.75139366 25.92485,8.75139366 C25.9245,8.75139366 25.9245,8.75139366 25.92415,8.75139366 L13.9748,8.72597193 C13.21705,8.72597193 12.6,9.36623631 12.6,10.1532204 L12.6,12.0126382 L21.0238,11.994843 C22.169,11.994843 23.1,12.9608687 23.1,14.1484266 L23.1,20.7050535 L24.85,22.702475 L24.85,19.6467832 C24.85,19.4463148 25.00645,19.2836157 25.2,19.2836157 L25.9245,19.2836157 C26.68295,19.2836157 27.3,18.6437145 27.3,17.8567304 Z M11.4,17 C11.1788,17 11,16.776 11,16.5 C11,16.224 11.1788,16 11.4,16 L16.6,16 C16.8212,16 17,16.224 17,16.5 C17,16.776 16.8212,17 16.6,17 L11.4,17 Z M19.6785714,18 C19.8563214,18 20,18.224 20,18.5 C20,18.776 19.8563214,19 19.6785714,19 L11.3214286,19 C11.1436786,19 11,18.776 11,18.5 C11,18.224 11.1436786,18 11.3214286,18 L19.6785714,18 Z M19.6785714,20 C19.8563214,20 20,20.224 20,20.5 C20,20.776 19.8563214,21 19.6785714,21 L11.3214286,21 C11.1436786,21 11,20.776 11,20.5 C11,20.224 11.1436786,20 11.3214286,20 L19.6785714,20 Z"></path>
        </g>
    </g>
</svg>