<?xml version="1.0" encoding="UTF-8"?>
<svg width="35px" height="35px" viewBox="0 0 35 35" version="1.1" xmlns="http://www.w3.org/2000/svg" xmlns:xlink="http://www.w3.org/1999/xlink">
    <!-- Generator: Sketch 47.1 (45422) - http://www.bohemiancoding.com/sketch -->
    <title>email</title>
    <desc>Created with Sketch.</desc>
    <defs></defs>
    <g id="Symbols" stroke="none" stroke-width="1" fill="none" fill-rule="evenodd">
        <g id="email" fill="#A97EB1">
            <path d="M29.870022,5.12806452 C23.032387,-1.70935484 11.9540545,-1.70935484 5.12360268,5.12806452 C-1.45225634,11.7037127 -1.69948413,22.2218402 4.38873877,29.0959021 L4.57059077,29.241472 C3.90883136,30.6671656 2.77407492,32.4273699 0.970103143,33.3146096 C0.373355825,33.6058402 0.511927044,34.4930799 1.1665033,34.5950061 C3.13777891,34.900421 5.96748686,34.5584545 8.60788688,32.5655749 L8.64407543,32.5946706 C15.3509588,36.5370591 24.123499,35.6352715 29.8845702,29.8740326 C36.707566,23.044069 36.707566,11.9583918 29.870022,5.12806452 Z M25.5358251,9.58048424 L10.0167581,9.58048424 C8.63132443,9.58048424 7.50526781,10.724149 7.50526781,12.1312466 L7.50526781,22.9037817 C7.50526781,24.3106635 8.63132443,25.4543282 10.0167581,25.4543282 L25.5314694,25.4543282 C26.916903,25.4543282 28.0430128,24.3106635 28.0430128,22.9037817 L28.0430128,12.1354546 C28.047156,10.7285728 26.9210994,9.58048424 25.5358251,9.58048424 Z M26.8999052,22.9037817 C26.8999052,23.6676994 26.2880345,24.2891918 25.5358251,24.2891918 L10.0167581,24.2891918 C9.2646018,24.2891918 8.65273114,23.6676994 8.65273114,22.9037817 L8.65273114,12.1354546 C8.65273114,11.3715369 9.2646018,10.7500984 10.0167581,10.7500984 L25.5314694,10.7500984 C26.2836788,10.7500984 26.8955494,11.3715369 26.8955494,12.1354546 L26.8955494,22.9037817 L26.8999052,22.9037817 Z M20.1511336,17.693784 L25.2086839,13.1955251 C25.4441837,12.9833456 25.4654712,12.6225874 25.2515263,12.3849463 C25.0375814,12.1516019 24.6738216,12.13049 24.4344173,12.3426696 L17.4597069,18.5509893 L16.0989104,17.3456505 C16.0947385,17.341513 16.0905665,17.3373755 16.0905665,17.3330258 C16.0604538,17.3033737 16.0306085,17.2779122 15.9963238,17.2523976 L10.4594835,12.3383199 C10.2198118,12.1261404 9.85605195,12.1472522 9.64210706,12.3849463 C9.42816217,12.6225874 9.44971712,12.9833456 9.68912145,13.1955251 L14.8068972,17.7318703 L9.7106764,22.4634736 C9.47956243,22.6800028 9.46661877,23.0407079 9.68494953,23.2740524 C9.80047977,23.3927668 9.9544666,23.4565798 10.1084534,23.4565798 C10.2497106,23.4565798 10.3909142,23.4056037 10.5022725,23.3036514 L15.6754065,18.5043628 L17.078778,19.7475757 C17.1901363,19.8451783 17.3270076,19.8918047 17.4640927,19.8918047 C17.6009105,19.8918047 17.7421676,19.8410408 17.8491401,19.7434382 L19.2911821,18.4618739 L24.4344173,23.3080011 C24.5455617,23.4140909 24.6909907,23.465067 24.8321943,23.465067 C24.9861812,23.465067 25.1359961,23.4056037 25.2515263,23.2866771 C25.4698571,23.0577354 25.4612993,22.6926274 25.2302388,22.4763104 L20.1511336,17.693784 Z"></path>
        </g>
    </g>
</svg>