<?xml version="1.0" encoding="UTF-8"?>
<svg width="21px" height="17px" viewBox="0 0 21 17" version="1.1" xmlns="http://www.w3.org/2000/svg" xmlns:xlink="http://www.w3.org/1999/xlink">
    <!-- Generator: Sketch 47.1 (45422) - http://www.bohemiancoding.com/sketch -->
    <title>iconmonstr-twitter-1</title>
    <desc>Created with Sketch.</desc>
    <defs></defs>
    <g id="Symbols" stroke="none" stroke-width="1" fill="none" fill-rule="evenodd">
        <g id="Header-new" transform="translate(-1096.000000, -111.000000)" fill-rule="nonzero" fill="#00ACED">
            <g id="iconmonstr-twitter-1" transform="translate(1096.000000, 111.000000)">
                <path d="M20.7428573,2.63083333 C20.0112287,2.9575 19.2249144,3.1775 18.3996573,3.27666667 C19.2423144,2.76916667 19.8894287,1.965 20.1935144,1.00666667 C19.405543,1.47666667 18.5322287,1.81833333 17.6025716,2.0025 C16.859343,1.205 15.797943,0.706666667 14.6246859,0.706666667 C11.9906573,0.706666667 10.0551144,3.17833333 10.6500287,5.74416667 C7.260343,5.57333333 4.25428586,3.94 2.24168586,1.4575 C1.17282871,3.30166667 1.68737157,5.71416667 3.50360014,6.93583333 C2.83577157,6.91416667 2.20605729,6.73 1.65671443,6.4225 C1.61197157,8.32333333 2.96668586,10.1016667 4.928743,10.4975 C4.354543,10.6541667 3.72565729,10.6908333 3.08600014,10.5675 C3.60468586,12.1975 5.11102871,13.3833333 6.89742871,13.4166667 C5.18228586,14.7691667 3.02137157,15.3733333 0.857143,15.1166667 C2.66260014,16.2808333 4.80777157,16.96 7.11120014,16.96 C14.6860001,16.96 18.9655716,10.5258333 18.7070573,4.755 C19.504143,4.17583333 20.1960001,3.45333333 20.7428573,2.63083333 L20.7428573,2.63083333 Z" id="Shape"></path>
            </g>
        </g>
    </g>
</svg>