<?xml version="1.0" encoding="UTF-8"?>
<svg width="57px" height="42px" viewBox="0 0 57 42" version="1.1" xmlns="http://www.w3.org/2000/svg" xmlns:xlink="http://www.w3.org/1999/xlink">
    <!-- Generator: Sketch 47.1 (45422) - http://www.bohemiancoding.com/sketch -->
    <title>icon-service-example</title>
    <desc>Created with Sketch.</desc>
    <defs></defs>
    <g id="Page-1" stroke="none" stroke-width="1" fill="none" fill-rule="evenodd">
        <g id="Service-Type-Design" transform="translate(-140.000000, -1205.000000)" fill="#A97EB1">
            <g id="icon-service-example" transform="translate(140.000000, 1205.000000)">
                <path d="M50.5398027,19.148496 C48.6077773,18.0133565 44.9850737,18 44.8317538,18 C44.3726257,18 44,18.4376697 44,18.9773048 C44,19.5174286 44.3726257,19.9546096 44.8317538,19.9546096 C45.7669223,19.9552612 48.4809348,20.1238462 49.7957989,20.8968943 C49.9154328,20.9669345 50.0421367,21 50.1673156,21 C50.4727079,21 50.7661783,20.8020958 50.9118739,20.4597133 C51.1175943,19.9769247 50.9508277,19.3895646 50.5398027,19.148496" id="Fill-1"></path>
                <path d="M50.3860284,26.4972996 C49.5011133,27.359391 48.3317562,27.8144613 47.0972725,27.7761896 C44.6810465,27.7036968 42.7154189,25.5676041 42.7154189,23.0147127 L42.7154189,21.4482261 C42.7154189,21.317767 42.6854996,21.1895428 42.6273309,21.0733309 L42.1114667,20.0377596 C41.9229056,19.6585343 41.82285,19.2340535 41.82285,18.8095726 L41.82285,18.759987 C41.82285,16.751001 43.4508767,15.117469 45.4518508,15.117469 L52.6516838,15.117469 L52.6516838,18.5979607 C52.6516838,19.1604432 52.5190648,19.7240432 52.2685778,20.2271627 L51.8472029,21.0733309 C51.7890342,21.1895428 51.7586975,21.317767 51.7586975,21.4482261 L51.7586975,23.240013 C51.7586975,24.4779775 51.2710827,25.6346494 50.3860284,26.4972996 L50.3860284,26.4972996 Z M47.2369886,31.9120495 L45.3426106,30.0100568 C45.3751739,29.8594841 45.3942388,29.6941056 45.3942388,29.5123848 L45.3936822,29.1583015 C45.9198441,29.3317814 46.473838,29.4344445 47.0473142,29.4519043 C47.1114667,29.4539994 47.1756193,29.4545582 47.2397718,29.4545582 C47.8736432,29.4545582 48.4916504,29.3585995 49.080295,29.1752025 L49.080295,29.5123848 C49.080295,29.6798585 49.1015864,29.8435609 49.1406902,30.0012571 L47.2369886,31.9120495 Z M31.9909546,32.6185399 C31.9860841,32.6256635 31.9756471,32.6415867 31.948511,32.6442406 C31.9213749,32.6480119 31.9077373,32.6333457 31.9017534,32.6278983 L29.8126913,30.5304963 L33.7516003,27.8281497 L34.5876705,28.7092374 L31.9909546,32.6185399 Z M28.5102978,29.3935189 L23.9887281,26.2911351 L23.9887281,24.7267436 C25.1590593,25.3618586 26.46855,25.7585436 27.8623713,25.8491945 C28.0819649,25.863302 28.3010019,25.8704256 28.5190648,25.8704256 C30.1155024,25.8704256 31.6522405,25.487429 33.0318675,24.7606854 L33.0318675,26.2911351 L28.5102978,29.3935189 Z M25.1188422,32.6273396 C25.113415,32.6333457 25.0997773,32.6470342 25.0726412,32.6442406 C25.0455051,32.6415867 25.0345116,32.6256635 25.0301976,32.6185399 L22.4334818,28.7092374 L23.2689953,27.827591 L27.2084609,30.5304963 L25.1188422,32.6273396 Z M20.4178959,15.7644567 L20.4178959,13.6852128 C20.4178959,13.5590837 20.3896465,13.4342118 20.3346785,13.3206537 C19.7976621,12.2037899 19.525327,11.0193221 19.525327,9.79867772 L19.525327,8.00689077 C19.525327,4.51606295 22.3547175,1.67613372 25.8320345,1.67613372 L37.4958252,1.67613372 L37.4958252,9.79867772 C37.4958252,11.0193221 37.2234901,12.2043486 36.6859171,13.3206537 C36.6315057,13.4347705 36.6032563,13.5590837 36.6032563,13.6852128 L36.6032563,16.0717478 C36.6032563,18.3409535 35.6938492,20.4464568 34.0435569,21.9992551 C33.8374617,22.1929882 33.6238519,22.374709 33.4025884,22.5438588 C33.3977178,22.5470714 33.3928472,22.5508427 33.3879766,22.554195 C31.8419148,23.7326567 29.9480935,24.305615 27.9699416,24.1768321 C23.7353187,23.9012478 20.4178959,20.2063507 20.4178959,15.7644567 L20.4178959,15.7644567 Z M12.3829669,29.3606947 L12.3829669,28.3611603 C13.3544392,27.6900084 14.1263568,26.7456467 14.587253,25.629202 C14.6873087,26.3504982 14.835096,27.0342211 15.0629001,27.6310643 C14.7303089,28.0380855 13.9430838,28.796536 12.3829669,29.3606947 L12.3829669,29.3606947 Z M8.87030337,27.7784244 C6.37684386,27.7784244 4.34873365,25.74276 4.34873365,23.240013 C4.34873365,22.7772605 3.97467298,22.4019462 3.51377679,22.4019462 C3.4670192,22.4019462 3.4213749,22.4068349 3.37684386,22.4145172 C3.37893126,22.3424434 3.38115781,22.2705094 3.38380184,22.1989943 C3.40231005,21.6228234 3.42026162,21.0782196 3.45338158,20.6112767 C3.55997773,19.1052705 4.15961592,17.7178508 5.14124687,16.7040693 C6.1322015,15.681069 7.45644308,15.117469 8.86974673,15.117469 C10.283607,15.117469 11.607292,15.681069 12.5982466,16.7040693 C13.5805733,17.7178508 14.1796549,19.1052705 14.2866685,20.6112767 C14.3192318,21.0782196 14.3371834,21.6222646 14.3562483,22.1984356 C14.3579182,22.2480212 14.3595881,22.2983052 14.3611188,22.3478909 C13.4528249,20.9430115 12.0498191,19.9078592 10.2374061,19.3230282 C8.56262176,18.7834528 7.12218202,18.8166962 7.06123017,18.8183723 C6.84274979,18.8243784 6.63512385,18.9160071 6.48344002,19.074262 L4.97717785,20.6422851 C4.65697189,20.9756961 4.66671305,21.5060527 4.99833009,21.8274513 C5.33050376,22.1487103 5.85889229,22.1389329 6.17895909,21.8055219 L7.43250765,20.5010709 C8.51210687,20.5538691 11.9851099,20.9593538 13.335931,23.9449669 C12.9962427,26.1448924 11.1121625,27.7784244 8.87030337,27.7784244 L8.87030337,27.7784244 Z M10.139577,31.6261291 C9.42749791,32.3048235 8.31199555,32.3048235 7.5999165,31.6255704 L6.82368494,30.8851383 C6.95477317,30.6386069 7.0264403,30.3592513 7.0264403,30.066766 L7.0264403,29.1735264 C7.60924019,29.3563647 8.2283607,29.4545582 8.86974673,29.4545582 C9.51071528,29.4545582 10.1298358,29.3558059 10.7130532,29.1740851 L10.7130532,30.066766 C10.7130532,30.3592513 10.7848594,30.6391657 10.9158085,30.8851383 L10.139577,31.6261291 Z M5.35652658,29.3580408 C3.79487893,28.7938821 3.01155024,28.0414378 2.67659338,27.6310643 C2.90495408,27.0325449 3.0528806,26.3478443 3.15279711,25.6243133 C3.61327581,26.732517 4.38463679,27.6785548 5.35652658,28.353478 L5.35652658,29.3580408 Z M54.4515725,30.8382065 L51.0030615,29.8490083 C50.8545783,29.8065462 50.7502087,29.6678462 50.7502087,29.5123848 L50.7502087,28.357389 C51.0307542,28.1619797 51.2987754,27.943803 51.548845,27.7004842 C52.7610632,26.5190893 53.4286112,24.9352826 53.4286112,23.240013 L53.4286112,21.6457305 L53.7623156,20.9768135 C54.1281659,20.2418288 54.3215976,19.4189869 54.3215976,18.5979607 L54.3215976,14.2794022 C54.3215976,13.8160909 53.947676,13.4413353 53.4866407,13.4413353 L45.4518508,13.4413353 C42.5300584,13.4413353 40.1529363,15.8273117 40.1529363,18.7594283 L40.1529363,18.8095726 C40.1529363,19.4927368 40.3138046,20.17632 40.6182856,20.7874104 L41.0455051,21.6457305 L41.0455051,23.0147127 C41.0455051,25.1840488 42.1109101,27.1301797 43.7237684,28.3016575 L43.7243251,29.5123848 C43.7243251,29.6989943 43.7243251,29.7765155 43.0345116,29.9740199 L41.3520735,30.4568861 L36.4848316,28.6803241 C36.5022266,28.4495763 36.424993,28.2154763 36.2570276,28.0386442 L34.7017812,26.3985474 L34.7017812,23.645358 C34.8665461,23.5090325 35.0285277,23.3693547 35.1856387,23.2219946 C37.1473699,21.3755936 38.2731701,18.7697644 38.2731701,16.0711891 L38.2731701,13.872381 C38.8657111,12.5781265 39.1657389,11.2091442 39.1657389,9.79867772 L39.1657389,0.838066859 C39.1657389,0.375453953 38.7918174,0 38.3307821,0 L25.8320345,0 C21.4337601,0 17.8554133,3.59181488 17.8554133,8.00633206 L17.8554133,9.79867772 C17.8554133,11.2091442 18.1554411,12.5786852 18.7479822,13.8728001 L18.7479822,15.7644567 C18.7479822,18.8974299 20.1356805,21.7198994 22.3188144,23.5804079 L22.3188144,26.3985474 L20.763568,28.0386442 C20.5961592,28.2154763 20.5183691,28.450135 20.535764,28.6803241 L15.3988311,30.5550796 C15.0264403,30.6909861 14.6807682,30.8753608 14.3665461,31.0980073 L13.5598386,30.6930813 C15.9614528,29.6443803 16.7219594,28.1685446 16.7584191,28.0954931 C16.8758697,27.8591582 16.8758697,27.5814787 16.7584191,27.3457026 C16.1566936,26.1372102 16.083774,23.9226185 16.0250487,22.1427042 C16.0055664,21.5501909 15.9870582,20.9909209 15.9517117,20.4922712 C15.6674089,16.4727628 12.6227387,13.4413353 8.86974673,13.4413353 C5.11689396,13.4413353 2.07222377,16.4727628 1.78736432,20.4922712 C1.75257445,20.9909209 1.73406624,21.5507496 1.71444475,22.1432629 C1.65571945,23.9226185 1.58293905,26.1372102 0.980656833,27.3457026 C0.863206234,27.5814787 0.863206234,27.8591582 0.980656833,28.0954931 C1.01753409,28.1685446 1.77650988,29.6411677 4.18299471,30.6915448 L1.94224882,31.8159512 C0.744224882,32.4172642 0,33.6257566 0,34.9701555 L0,41.1619331 C0,41.624546 0.374060674,42 0.834956861,42 C1.29585305,42 1.66991372,41.624546 1.66991372,41.1619331 L1.66991372,34.9701555 C1.66991372,34.2647826 2.06025605,33.630785 2.68856109,33.3153925 L5.47884776,31.9147034 L6.44976343,32.8406276 C7.12816588,33.4883136 7.99888672,33.8118074 8.86974673,33.8118074 C9.74060674,33.8118074 10.6114667,33.4877549 11.2898692,32.8406276 L12.2602282,31.9152621 L13.170192,32.3714499 C12.74172,33.0595027 12.4981909,33.8664215 12.4981909,34.7116119 L12.4981909,41.1619331 C12.4981909,41.624546 12.8722516,42 13.3331478,42 C13.7947398,42 14.1681046,41.624546 14.1681046,41.1619331 L14.1681046,34.7116119 C14.1681046,33.5609461 14.8922906,32.5236987 15.9696632,32.130785 L21.3860284,30.1540646 L23.6402728,33.5489338 C23.9288895,33.9826334 24.3904815,34.2608716 24.9078764,34.3121333 C24.9654884,34.3181395 25.0225438,34.320933 25.080295,34.320933 C25.5363206,34.320933 25.9734205,34.1408884 26.3000278,33.8129249 L27.6753409,32.43207 L27.6753409,41.1619331 C27.6753409,41.6251048 28.0492625,42 28.5102978,42 C28.9713331,42 29.3452547,41.6251048 29.3452547,41.1619331 L29.3452547,32.43207 L30.7211244,33.8129249 C31.0471751,34.1408884 31.484275,34.320933 31.9408572,34.320933 C31.9980518,34.320933 32.0551072,34.3181395 32.1127192,34.3126921 C32.6301141,34.2608716 33.0917061,33.9826334 33.3803228,33.5489338 L35.6351239,30.1540646 L41.0509324,32.130785 C42.128305,32.5242574 42.852491,33.5613651 42.852491,34.7116119 L42.852491,41.1619331 C42.852491,41.6251048 43.2258558,42 43.6874478,42 C44.148344,42 44.5224047,41.6251048 44.5224047,41.1619331 L44.5224047,34.7116119 C44.5224047,33.5466989 44.0608127,32.4538598 43.2872252,31.6452649 L43.4933203,31.5863209 C43.7015029,31.5268181 43.9852491,31.4449669 44.2706652,31.3047304 L46.4020317,33.4447341 L46.4020317,41.1619331 C46.4020317,41.6251048 46.7760924,42 47.2369886,42 C47.6985806,42 48.0719454,41.6251048 48.0719454,41.1619331 L48.0719454,33.4447341 L50.1892569,31.3195363 C50.3018369,31.3773629 50.419705,31.4252724 50.5442527,31.4613092 L53.9927637,32.4499488 C54.7798497,32.6759475 55.3300863,33.4075798 55.3300863,34.2293044 L55.3300863,41.1619331 C55.3300863,41.6251048 55.7034512,42 56.1650431,42 C56.6259393,42 57,41.6251048 57,41.1619331 L57,34.2293044 C57,32.6628178 55.9518508,31.2681348 54.4515725,30.8382065 L54.4515725,30.8382065 Z" id="Fill-3"></path>
                <path d="M53,35 C52.4478333,35 52,35.3720912 52,35.8317985 L52,41.1682015 C52,41.6273543 52.4478333,42 53,42 C53.5526667,42 54,41.6273543 54,41.1682015 L54,35.8317985 C54,35.3726457 53.5526667,35 53,35" id="Fill-5"></path>
                <path d="M5,36 C4.448,36 4,36.3789207 4,36.845805 L4,41.154195 C4,41.6210793 4.448,42 5,42 C5.55283333,42 6,41.6210793 6,41.154195 L6,36.845805 C6,36.3789207 5.55283333,36 5,36" id="Fill-7"></path>
                <path d="M34.7586752,10.5843378 C31.6379539,7.29282392 25.1095341,7.92226521 22.4469861,8.34547021 C21.608606,8.47861009 21,9.22755821 21,10.1248746 L21,12.1298047 C21,12.6102975 21.3694813,13 21.825042,13 C22.2804652,13 22.650084,12.6102975 22.650084,12.1298047 L22.650084,10.1248746 C22.650084,10.095433 22.6683724,10.0699073 22.6929862,10.0659914 C23.7566028,9.89717351 25.8669227,9.63655001 28.0531465,9.79013949 C30.6260399,9.97085005 32.4892597,10.6517779 33.5915158,11.814939 C33.9138322,12.1547503 34.4364963,12.1547503 34.7586752,11.814939 C35.0804416,11.4749827 35.0804416,10.9237139 34.7586752,10.5843378" id="Fill-9"></path>
                <path d="M19,37 C18.4471667,37 18,37.3568299 18,37.7964954 L18,41.2035046 C18,41.6431701 18.4471667,42 19,42 C19.552,42 20,41.6431701 20,41.2035046 L20,37.7964954 C20,37.3568299 19.552,37 19,37" id="Fill-11"></path>
                <path d="M38,37 C37.448,37 37,37.3568299 37,37.7964954 L37,41.2035046 C37,41.6431701 37.448,42 38,42 C38.5521667,42 39,41.6431701 39,41.2035046 L39,37.7964954 C39,37.3568299 38.5521667,37 38,37" id="Fill-13"></path>
            </g>
        </g>
    </g>
</svg>