<?xml version="1.0" encoding="UTF-8"?>
<svg width="21px" height="21px" viewBox="0 0 21 21" version="1.1" xmlns="http://www.w3.org/2000/svg" xmlns:xlink="http://www.w3.org/1999/xlink">
    <!-- Generator: Sketch 47.1 (45422) - http://www.bohemiancoding.com/sketch -->
    <title>linkedin-icon</title>
    <desc>Created with Sketch.</desc>
    <defs></defs>
    <g id="Symbols" stroke="none" stroke-width="1" fill="none" fill-rule="evenodd">
        <g id="Header-new" transform="translate(-1133.000000, -109.000000)" fill-rule="nonzero" fill="#0077B5">
            <g id="linkedin-icon" transform="translate(1133.000000, 109.000000)">
                <path d="M19.3,0.9 L1.7,0.9 C1.3,0.9 0.9,1.3 0.9,1.7 L0.9,19.3 C0.9,19.7 1.3,20.1 1.7,20.1 L19.3,20.1 C19.7,20.1 20.1,19.7 20.1,19.3 L20.1,1.7 C20.1,1.2 19.8,0.9 19.3,0.9 Z M6.6,17.3 L3.7,17.3 L3.7,8.1 L6.6,8.1 L6.6,17.3 Z M5.2,6.8 C4.3,6.8 3.5,6.1 3.5,5.1 C3.5,4.2 4.2,3.4 5.2,3.4 C6.1,3.4 6.9,4.1 6.9,5.1 C6.8,6.1 6.1,6.8 5.2,6.8 Z M17.3,17.3 L14.4,17.3 L14.4,12.8 C14.4,11.7 14.4,10.4 12.9,10.4 C11.4,10.4 11.2,11.6 11.2,12.8 L11.2,17.3 L8.4,17.3 L8.4,8.1 L11.1,8.1 L11.1,9.4 L11.1,9.4 C11.5,8.7 12.4,7.9 13.8,7.9 C16.7,7.9 17.2,9.8 17.2,12.3 L17.2,17.3 L17.3,17.3 Z" id="Shape"></path>
            </g>
        </g>
    </g>
</svg>