<?xml version="1.0" encoding="UTF-8"?>
<svg width="53px" height="53px" viewBox="0 0 53 53" version="1.1" xmlns="http://www.w3.org/2000/svg" xmlns:xlink="http://www.w3.org/1999/xlink">
    <!-- Generator: Sketch 47.1 (45422) - http://www.bohemiancoding.com/sketch -->
    <title>pricing-icon</title>
    <desc>Created with Sketch.</desc>
    <defs></defs>
    <g id="Page-1" stroke="none" stroke-width="1" fill="none" fill-rule="evenodd">
        <g id="Service-Type-Design" transform="translate(-737.000000, -1844.000000)" fill="#A97EB1">
            <g id="pricing-icon" transform="translate(737.000000, 1844.000000)">
                <path d="M50.0318116,23.4304974 L23.4300426,50.0338882 C22.9418358,50.5215976 22.2898152,50.7906207 21.5932827,50.7915265 L21.5846132,50.7915265 C20.8887278,50.7906207 20.2367071,50.5215976 19.7488885,50.0338882 L5.81720414,36.101108 L31.3641464,10.5527172 C31.79529,10.1215556 31.79529,9.42240626 31.3641464,8.99124473 C30.9330028,8.56008321 30.2338824,8.56008321 29.8027388,8.99124473 L4.25540834,34.5397649 L2.96598869,33.2502918 C2.47726435,32.7614177 2.20825246,32.1079466 2.20825246,31.4098325 C2.20825246,30.7118477 2.47726435,30.0582472 2.96650627,29.5695026 L29.5677577,2.96662939 C30.0569997,2.47775537 30.710573,2.20834412 31.4085288,2.20834412 C32.106614,2.20834412 32.7601874,2.47775537 33.2494293,2.96662939 L39.2222955,8.93974345 L13.674965,34.4886518 C13.2438214,34.9198134 13.2438214,35.6189627 13.674965,36.0501243 C13.8902781,36.2659638 14.1732646,36.3736248 14.4558629,36.3736248 C14.7378143,36.3736248 15.0209302,36.2654462 15.2362433,36.0501243 L40.7837031,10.5016041 L50.0318116,19.7497082 C51.0467848,20.7642059 51.0462672,22.4159997 50.0318116,23.4304974 M51.5932192,18.1882358 L34.8107075,1.40515696 C33.904426,0.49883784 32.6965251,0 31.4085288,0 C30.1206619,0 28.9126316,0.49883784 28.0063501,1.40463936 L1.40458107,28.0075125 C0.498817136,28.9138317 0,30.1219121 0,31.4098325 C0,32.6977528 0.498817136,33.9058333 1.40458107,34.8116348 L3.47451044,36.8815207 L3.47489862,36.8820383 L17.3839389,50.7915265 L15.4581554,50.7915265 C14.8485763,50.7915265 14.3537704,51.2859647 14.3537704,51.8955691 C14.3537704,52.5056912 14.8485763,53 15.4581554,53 L21.5851308,53 L21.5892715,53 L21.5932827,53 L37.54068,53 C38.1502592,53 38.6445475,52.5056912 38.6445475,51.8960867 C38.6445475,51.2859647 38.1502592,50.7915265 37.54068,50.7915265 L25.7951216,50.7915265 L51.5932192,24.9923581 C53.4689269,23.1160549 53.4689269,20.0640214 51.5932192,18.1882358" id="Fill-1"></path>
                <path d="M27.6736411,32.3264339 C27.2384088,31.8911887 26.532789,31.8911887 26.0970343,32.3264339 L17.3264242,41.0973044 C16.8911919,41.5325496 16.8911919,42.2381902 17.3264242,42.6734355 C17.5437791,42.8913193 17.8290574,43 18.1143358,43 C18.3994834,43 18.6847618,42.8913193 18.9026392,42.6734355 L27.6731186,33.9026956 C28.1088734,33.4673198 28.1088734,32.7611566 27.6736411,32.3264339" id="Fill-3"></path>
                <path d="M23.0406242,39.3361205 L19.3361582,43.0407093 C18.8879473,43.48887 18.8879473,44.2155843 19.3361582,44.663745 C19.5605327,44.8875563 19.854318,45 20.1479688,45 C20.4417541,45 20.7354049,44.8875563 20.9593758,44.663745 L24.6638418,40.9596942 C25.1120527,40.5115335 25.1120527,39.7848192 24.6638418,39.3361205 C24.2156309,38.8879598 23.4893732,38.8879598 23.0406242,39.3361205" id="Fill-5"></path>
                <path d="M26.8875997,36.362419 L26.3624365,36.8875568 C25.8791878,37.3707822 25.8791878,38.1542106 26.3624365,38.6374359 C26.604351,38.8793387 26.9209572,39 27.2377085,39 C27.5544598,39 27.871066,38.8793387 28.1124003,38.6374359 L28.6375635,38.1128783 C29.1208122,37.6296529 29.1208122,36.8460795 28.6375635,36.362419 C28.1543147,35.8791937 27.3708484,35.8791937 26.8875997,36.362419" id="Fill-7"></path>
                <path d="M40.2203992,24.3389576 L38.661456,22.7795664 L41.77973,19.6616883 L43.338544,21.2205628 L40.2203992,24.3389576 Z M42.5593954,17.3229891 C42.3525612,17.1161469 42.0719592,17 41.77973,17 C41.4875008,17 41.2068988,17.1161469 41.0000646,17.3229891 L36.3229766,22.0002584 C36.1165299,22.2072298 36,22.4873259 36,22.7795664 C36,23.0721945 36.1165299,23.3522906 36.3229766,23.559262 L39.4411214,26.6770109 C39.6566113,26.8925092 39.9387636,27 40.220916,27 C40.5029391,27 40.7850914,26.8925092 41.0000646,26.6770109 L45.6771526,22.0002584 C46.1076158,21.5697786 46.1076158,20.871347 45.6771526,20.4408672 L42.5593954,17.3229891 Z" id="Fill-9"></path>
                <path d="M34.2372861,9 C34.5544571,9 34.8711931,8.87933868 35.1125157,8.63743595 L35.6376535,8.11229817 C36.1208788,7.6290728 36.1208788,6.84506429 35.6370734,6.36241903 C35.153848,5.87919366 34.3704196,5.87919366 33.8870492,6.36241903 L33.3619115,6.8875568 C32.8792662,7.37078217 32.8792662,8.15479068 33.3624916,8.63801605 C33.6043943,8.87933868 33.9205501,9 34.2372861,9" id="Fill-11"></path>
                <path d="M10.8875568,37.3624015 L10.362419,37.8875139 C9.87919366,38.3707159 9.87919366,39.1542515 10.362419,39.6374535 C10.6043218,39.8793445 10.9210577,40 11.2377937,40 C11.5538045,40 11.8711206,39.8793445 12.1124432,39.6374535 L12.637581,39.1123411 C13.1208063,38.6291391 13.1208063,37.8456035 12.637581,37.3624015 C12.1543556,36.8791995 11.3707822,36.8791995 10.8875568,37.3624015" id="Fill-13"></path>
            </g>
        </g>
    </g>
</svg>