<?xml version="1.0" encoding="UTF-8"?>
<svg width="262px" height="53px" viewBox="0 0 262 53" version="1.1" xmlns="http://www.w3.org/2000/svg" xmlns:xlink="http://www.w3.org/1999/xlink">
    <!-- Generator: Sketch 47.1 (45422) - http://www.bohemiancoding.com/sketch -->
    <title>RobinsonsFacServices_Logo-01</title>
    <desc>Created with Sketch.</desc>
    <defs>
        <linearGradient x1="3.92820057%" y1="10.7027577%" x2="102.383951%" y2="74.1084768%" id="linearGradient-1">
            <stop stop-color="#A87EB1" offset="0%"></stop>
            <stop stop-color="#904281" offset="71%"></stop>
            <stop stop-color="#782F67" offset="82%"></stop>
            <stop stop-color="#5B1949" offset="94%"></stop>
        </linearGradient>
        <linearGradient x1="38553%" y1="7271%" x2="34602%" y2="7271%" id="linearGradient-2">
            <stop stop-color="#A87EB1" offset="0%"></stop>
            <stop stop-color="#904281" offset="71%"></stop>
            <stop stop-color="#782F67" offset="82%"></stop>
            <stop stop-color="#5B1949" offset="94%"></stop>
        </linearGradient>
        <linearGradient x1="34044%" y1="8954%" x2="34044%" y2="4034%" id="linearGradient-3">
            <stop stop-color="#A87EB1" offset="0%"></stop>
            <stop stop-color="#904281" offset="71%"></stop>
            <stop stop-color="#782F67" offset="82%"></stop>
            <stop stop-color="#5B1949" offset="94%"></stop>
        </linearGradient>
    </defs>
    <g id="Symbols" stroke="none" stroke-width="1" fill="none" fill-rule="evenodd">
        <g id="Header-new" transform="translate(0.000000, -6.000000)">
            <g id="RobinsonsFacServices_Logo-01" transform="translate(0.000000, 6.000000)">
                <g id="Shape">
                    <path d="M233.266374,40.2684783 C233.454592,40.2504169 233.641034,40.3174259 233.774736,40.4511884 C233.908437,40.5849509 233.975416,40.7714781 233.957363,40.9597826 L233.957363,41.7086957 C233.975416,41.8970002 233.908437,42.0835273 233.774736,42.2172898 C233.641034,42.3510523 233.454592,42.4180614 233.266374,42.4 L169.234725,42.4 C169.046507,42.4180614 168.860065,42.3510523 168.726363,42.2172898 C168.592662,42.0835273 168.525683,41.8970002 168.543736,41.7086957 L168.543736,40.9597826 C168.525683,40.7714781 168.592662,40.5849509 168.726363,40.4511884 C168.860065,40.3174259 169.046507,40.2504169 169.234725,40.2684783 L233.266374,40.2684783 L233.266374,40.2684783 Z" fill="#00263D" fill-rule="nonzero"></path>
                    <path d="M0.345494505,40.9021739 C0.324560781,40.7900938 0.360221693,40.6748956 0.440809246,40.5942713 C0.521396799,40.513647 0.636542474,40.4779698 0.748571429,40.498913 L6.16131868,40.498913 C6.38393192,40.498913 6.5643956,40.6794591 6.5643956,40.9021739 L6.5643956,41.1326087 C6.5643956,41.3553235 6.38393192,41.5358696 6.16131868,41.5358696 L1.49714286,41.5358696 L1.49714286,46.0293478 L5.47032967,46.0293478 C5.58235863,46.0084045 5.6975043,46.0440817 5.77809185,46.1247061 C5.85867941,46.2053304 5.89434032,46.3205286 5.87340659,46.4326087 L5.87340659,46.6630435 C5.89434032,46.7751236 5.85867941,46.8903218 5.77809185,46.9709461 C5.6975043,47.0515704 5.58235863,47.0872476 5.47032967,47.0663043 L1.49714286,47.0663043 L1.49714286,51.9630435 C1.49714286,52.1857583 1.31667917,52.3663043 1.09406593,52.3663043 L0.748571429,52.3663043 C0.636542474,52.3872476 0.521396799,52.3515704 0.440809246,52.2709461 C0.360221693,52.1903218 0.324560781,52.0751236 0.345494505,51.9630435 L0.345494505,40.9021739 L0.345494505,40.9021739 Z" fill="#00263D" fill-rule="nonzero"></path>
                    <path d="M11.170989,40.8445652 C11.2247784,40.6356992 11.4161674,40.4920919 11.6316484,40.498913 L12.2074725,40.498913 C12.4229535,40.4920919 12.6143425,40.6356992 12.6681319,40.8445652 L16.7564835,51.9054348 C16.8242034,52.0197627 16.8204106,52.1628091 16.7467274,52.2733843 C16.6730443,52.3839595 16.5425204,52.44248 16.410989,52.423913 L16.0654945,52.423913 C15.8500135,52.4307342 15.6586245,52.2871269 15.6048352,52.0782609 L14.338022,48.6217391 L9.5010989,48.6217391 L8.23428571,52.0782609 C8.18049635,52.2871269 7.98910735,52.4307342 7.77362637,52.423913 L7.42813187,52.423913 C7.29660045,52.44248 7.16607663,52.3839595 7.09239345,52.2733843 C7.01871028,52.1628091 7.01491744,52.0197627 7.08263736,51.9054348 L11.170989,40.8445652 Z M13.9349451,47.5847826 L12.3802198,43.2641304 C12.2074725,42.6880435 11.9195604,41.7086957 11.9195604,41.7086957 L11.9195604,41.7086957 C11.9195604,41.7086957 11.6316484,42.6880435 11.4589011,43.2641304 L9.84659341,47.5847826 L13.9349451,47.5847826 L13.9349451,47.5847826 Z" fill="#00263D" fill-rule="nonzero"></path>
                    <path d="M24.0118681,40.2684783 C25.4400105,40.2390712 26.8375,40.684851 27.9850549,41.5358696 C28.0704963,41.6036503 28.1248432,41.7031719 28.1356934,41.8117228 C28.1465435,41.9202736 28.112971,42.0285912 28.0426374,42.1119565 L27.8698901,42.3423913 C27.8021403,42.4278717 27.7026641,42.4822434 27.5941627,42.4930985 C27.4856614,42.5039536 27.3773933,42.4703657 27.2940659,42.4 C26.331262,41.727645 25.18602,41.3658246 24.0118681,41.3630435 C21.1327473,41.3630435 19.2325275,43.5521739 19.2325275,46.3173913 C19.2325275,49.0826087 21.1327473,51.4445652 24.0694505,51.4445652 C25.3501244,51.4331166 26.5888139,50.9861723 27.581978,50.1771739 C27.6551747,50.0862067 27.7693342,50.0383667 27.8854821,50.0499868 C28.0016301,50.0616069 28.1040601,50.1311157 28.1578022,50.2347826 L28.3305495,50.4076087 C28.4008831,50.4909741 28.4344556,50.5992916 28.4236055,50.7078425 C28.4127553,50.8163933 28.3584084,50.9159149 28.272967,50.9836957 C27.0824568,51.9922463 25.5718491,52.5436655 24.0118681,52.5391304 C20.3841758,52.5391304 17.9657143,49.773913 17.9657143,46.3173913 C17.917387,44.6987816 18.5388586,43.1319649 19.6833767,41.9869245 C20.8278947,40.8418841 22.3939968,40.2201289 24.0118681,40.2684783 Z" fill="#00263D" fill-rule="nonzero"></path>
                    <path d="M31.0945055,40.9021739 C31.0735718,40.7900938 31.1092327,40.6748956 31.1898202,40.5942713 C31.2704078,40.513647 31.3855535,40.4779698 31.4975824,40.498913 L31.8430769,40.498913 C31.9499796,40.498913 32.0525038,40.5413993 32.1280953,40.6170254 C32.2036869,40.6926515 32.2461538,40.7952225 32.2461538,40.9021739 L32.2461538,51.9630435 C32.2461538,52.0699949 32.2036869,52.1725659 32.1280953,52.248192 C32.0525038,52.3238181 31.9499796,52.3663043 31.8430769,52.3663043 L31.4975824,52.3663043 C31.3855535,52.3872476 31.2704078,52.3515704 31.1898202,52.2709461 C31.1092327,52.1903218 31.0735718,52.0751236 31.0945055,51.9630435 L31.0945055,40.9021739 Z" fill="#00263D" fill-rule="nonzero"></path>
                    <path d="M35.9314286,40.9021739 C35.9104948,40.7900938 35.9461558,40.6748956 36.0267433,40.5942713 C36.1073309,40.513647 36.2224765,40.4779698 36.3345055,40.498913 L36.68,40.498913 C36.9026132,40.498913 37.0830769,40.6794591 37.0830769,40.9021739 L37.0830769,51.3293478 L42.2079121,51.3293478 C42.4305253,51.3293478 42.610989,51.5098939 42.610989,51.7326087 L42.610989,51.9630435 C42.610989,52.1857583 42.4305253,52.3663043 42.2079121,52.3663043 L36.3345055,52.3663043 C36.2224765,52.3872476 36.1073309,52.3515704 36.0267433,52.2709461 C35.9461558,52.1903218 35.9104948,52.0751236 35.9314286,51.9630435 L35.9314286,40.9021739 L35.9314286,40.9021739 Z" fill="#00263D" fill-rule="nonzero"></path>
                    <path d="M44.8567033,40.9021739 C44.8357696,40.7900938 44.8714305,40.6748956 44.952018,40.5942713 C45.0326056,40.513647 45.1477513,40.4779698 45.2597802,40.498913 L45.6052747,40.498913 C45.827888,40.498913 46.0083516,40.6794591 46.0083516,40.9021739 L46.0083516,51.9630435 C46.0083516,52.1857583 45.827888,52.3663043 45.6052747,52.3663043 L45.2597802,52.3663043 C45.1477513,52.3872476 45.0326056,52.3515704 44.952018,52.2709461 C44.8714305,52.1903218 44.8357696,52.0751236 44.8567033,51.9630435 L44.8567033,40.9021739 Z" fill="#00263D" fill-rule="nonzero"></path>
                    <path d="M52.5151648,41.5358696 L48.6571429,41.5358696 C48.4345296,41.5358696 48.2540659,41.3553235 48.2540659,41.1326087 L48.2540659,40.9021739 C48.2540659,40.7952225 48.2965328,40.6926515 48.3721244,40.6170254 C48.447716,40.5413993 48.5502402,40.498913 48.6571429,40.498913 L57.5248352,40.498913 C57.7474484,40.498913 57.9279121,40.6794591 57.9279121,40.9021739 L57.9279121,41.1326087 C57.9279121,41.3553235 57.7474484,41.5358696 57.5248352,41.5358696 L53.6668132,41.5358696 L53.6668132,51.9630435 C53.6877469,52.0751236 53.652086,52.1903218 53.5714984,52.2709461 C53.4909109,52.3515704 53.3757652,52.3872476 53.2637363,52.3663043 L52.9182418,52.3663043 C52.6956285,52.3663043 52.5151648,52.1857583 52.5151648,51.9630435 L52.5151648,41.5358696 Z" fill="#00263D" fill-rule="nonzero"></path>
                    <path d="M60.1736264,40.9021739 C60.1526926,40.7900938 60.1883536,40.6748956 60.2689411,40.5942713 C60.3495287,40.513647 60.4646743,40.4779698 60.5767033,40.498913 L60.9221978,40.498913 C61.144811,40.498913 61.3252747,40.6794591 61.3252747,40.9021739 L61.3252747,51.9630435 C61.3252747,52.1857583 61.144811,52.3663043 60.9221978,52.3663043 L60.5767033,52.3663043 C60.4646743,52.3872476 60.3495287,52.3515704 60.2689411,52.2709461 C60.1883536,52.1903218 60.1526926,52.0751236 60.1736264,51.9630435 L60.1736264,40.9021739 Z" fill="#00263D" fill-rule="nonzero"></path>
                    <path d="M65.0681319,40.9021739 C65.0471981,40.7900938 65.0828591,40.6748956 65.1634466,40.5942713 C65.2440342,40.513647 65.3591798,40.4779698 65.4712088,40.498913 L71.3446154,40.498913 C71.5672286,40.498913 71.7476923,40.6794591 71.7476923,40.9021739 L71.7476923,41.1326087 C71.7476923,41.3553235 71.5672286,41.5358696 71.3446154,41.5358696 L66.2197802,41.5358696 L66.2197802,45.8565217 L70.3081319,45.8565217 C70.4201608,45.8355785 70.5353065,45.8712556 70.6158941,45.95188 C70.6964816,46.0325043 70.7321425,46.1477025 70.7112088,46.2597826 L70.7112088,46.4902174 C70.7112088,46.7129322 70.5307451,46.8934783 70.3081319,46.8934783 L66.2197802,46.8934783 L66.2197802,51.3293478 L71.6325275,51.3293478 C71.8551407,51.3293478 72.0356044,51.5098939 72.0356044,51.7326087 L72.0356044,51.9630435 C72.0356044,52.1857583 71.8551407,52.3663043 71.6325275,52.3663043 L65.4712088,52.3663043 C65.3591798,52.3872476 65.2440342,52.3515704 65.1634466,52.2709461 C65.0828591,52.1903218 65.0471981,52.0751236 65.0681319,51.9630435 L65.0681319,40.9021739 Z" fill="#00263D" fill-rule="nonzero"></path>
                    <path d="M74.2237363,50.7532609 L74.4540659,50.5228261 C74.5218158,50.4373457 74.621292,50.382974 74.7297933,50.3721189 C74.8382946,50.3612638 74.9465628,50.3948517 75.0298901,50.4652174 C75.8057801,51.1165616 76.7811857,51.4825056 77.7938462,51.5021739 C79.2334066,51.5021739 80.2123077,50.6956522 80.2123077,49.4858696 C80.2123077,46.4902174 74.2813187,47.1815217 74.2813187,43.4945652 C74.2813187,41.5358696 75.9512088,40.326087 78.0241758,40.326087 C79.0570549,40.3217074 80.0648436,40.644347 80.9032967,41.2478261 C80.997656,41.3066665 81.06353,41.4018886 81.0853357,41.5109669 C81.1071414,41.6200451 81.0829418,41.7332903 81.0184615,41.823913 L80.8457143,42.1119565 C80.7869008,42.2063589 80.691722,42.272263 80.5826935,42.2940786 C80.473665,42.3158943 80.3604715,42.2916836 80.2698901,42.2271739 C79.5970126,41.7472214 78.792942,41.4857792 77.9665934,41.4782609 C76.5846154,41.4782609 75.4905495,42.2271739 75.4905495,43.4945652 C75.4905495,46.375 81.4215385,45.5684783 81.4215385,49.4282609 C81.4215385,51.2717391 80.0395604,52.7119565 77.7938462,52.7119565 C76.5123464,52.7051376 75.2721649,52.2576549 74.2813187,51.4445652 C74.1533,51.382355 74.0675621,51.2572136 74.055743,51.1153192 C74.0439239,50.9734248 74.1077755,50.8358119 74.2237363,50.7532609 L74.2237363,50.7532609 Z" fill="#00263D" fill-rule="nonzero"></path>
                    <path d="M88.389011,50.7532609 L88.6193407,50.5228261 C88.6870905,50.4373457 88.7865667,50.382974 88.895068,50.3721189 C89.0035694,50.3612638 89.1118375,50.3948517 89.1951648,50.4652174 C89.9710548,51.1165616 90.9464605,51.4825056 91.9591209,51.5021739 C93.3986813,51.5021739 94.3775824,50.6956522 94.3775824,49.4858696 C94.3775824,46.4902174 88.4465934,47.1815217 88.4465934,43.4945652 C88.4465934,41.5358696 90.1164835,40.326087 92.1894505,40.326087 C93.2223297,40.3217074 94.2301184,40.644347 95.0685714,41.2478261 C95.1629307,41.3066665 95.2288048,41.4018886 95.2506105,41.5109669 C95.2724162,41.6200451 95.2482166,41.7332903 95.1837363,41.823913 L95.010989,42.1119565 C94.9521755,42.2063589 94.8569968,42.272263 94.7479682,42.2940786 C94.6389397,42.3158943 94.5257463,42.2916836 94.4351648,42.2271739 C93.7622874,41.7472214 92.9582167,41.4857792 92.1318681,41.4782609 C90.7498901,41.4782609 89.6558242,42.2271739 89.6558242,43.4945652 C89.6558242,46.375 95.5868132,45.5684783 95.5868132,49.4282609 C95.5868132,51.2717391 94.2048352,52.7119565 91.9591209,52.7119565 C90.6776211,52.7051376 89.4374397,52.2576549 88.4465934,51.4445652 C88.3185748,51.382355 88.2328369,51.2572136 88.2210177,51.1153192 C88.2091986,50.9734248 88.2730503,50.8358119 88.389011,50.7532609 Z" fill="#00263D" fill-rule="nonzero"></path>
                    <path d="M98.4083516,40.9021739 C98.3874179,40.7900938 98.4230788,40.6748956 98.5036664,40.5942713 C98.5842539,40.513647 98.6993996,40.4779698 98.8114286,40.498913 L104.684835,40.498913 C104.907448,40.498913 105.087912,40.6794591 105.087912,40.9021739 L105.087912,41.1326087 C105.087912,41.3553235 104.907448,41.5358696 104.684835,41.5358696 L99.56,41.5358696 L99.56,45.8565217 L103.648352,45.8565217 C103.760381,45.8355785 103.875526,45.8712556 103.956114,45.95188 C104.036701,46.0325043 104.072362,46.1477025 104.051429,46.2597826 L104.051429,46.4902174 C104.051429,46.7129322 103.870965,46.8934783 103.648352,46.8934783 L99.56,46.8934783 L99.56,51.3293478 L104.972747,51.3293478 C105.19536,51.3293478 105.375824,51.5098939 105.375824,51.7326087 L105.375824,51.9630435 C105.375824,52.1857583 105.19536,52.3663043 104.972747,52.3663043 L98.8114286,52.3663043 C98.6993996,52.3872476 98.5842539,52.3515704 98.5036664,52.2709461 C98.4230788,52.1903218 98.3874179,52.0751236 98.4083516,51.9630435 L98.4083516,40.9021739 Z" fill="#00263D" fill-rule="nonzero"></path>
                    <path d="M107.909451,40.9021739 C107.888517,40.7900938 107.924178,40.6748956 108.004765,40.5942713 C108.085353,40.513647 108.200499,40.4779698 108.312527,40.498913 L111.537143,40.498913 C112.283252,40.447346 113.031344,40.5655198 113.725275,40.8445652 C114.876433,41.384171 115.583337,42.5704875 115.51033,43.8402174 C115.585255,45.3155464 114.666249,46.6593218 113.264615,47.123913 L113.264615,47.123913 L113.552527,47.5847826 L115.855824,51.9054348 C115.998933,51.9849758 116.050494,52.1655218 115.970989,52.3086956 C115.891484,52.4518695 115.711021,52.503454 115.567912,52.423913 L115.107253,52.423913 C114.891249,52.4459926 114.684388,52.3310173 114.589011,52.1358696 L112.055385,47.4119565 L109.061099,47.4119565 L109.061099,52.0206522 C109.061099,52.243367 108.880635,52.423913 108.658022,52.423913 L108.312527,52.423913 C108.200499,52.4448563 108.085353,52.4091791 108.004765,52.3285548 C107.924178,52.2479305 107.888517,52.1327323 107.909451,52.0206522 L107.909451,40.9021739 Z M111.882637,46.3173913 C113.322198,46.3173913 114.243516,45.3380435 114.243516,43.8402174 C114.27885,42.9563428 113.779012,42.138053 112.976703,41.7663043 C112.482512,41.5729922 111.950965,41.4942086 111.421978,41.5358696 L109.061099,41.5358696 L109.061099,46.3173913 L111.882637,46.3173913 L111.882637,46.3173913 Z" fill="#00263D" fill-rule="nonzero"></path>
                    <path d="M117.18022,40.9597826 C117.1125,40.8454547 117.116293,40.7024083 117.189976,40.5918331 C117.263659,40.4812579 117.394183,40.4227374 117.525714,40.4413043 L117.928791,40.4413043 C118.144272,40.4344832 118.335661,40.5780905 118.389451,40.7869565 L121.556484,49.4858696 C121.786813,50.1195652 122.017143,51.0413043 122.017143,51.0413043 L122.074725,51.0413043 C122.074725,51.0413043 122.305055,50.1195652 122.535385,49.4858696 L125.76,40.7869565 C125.813789,40.5780905 126.005178,40.4344832 126.220659,40.4413043 L126.623736,40.4413043 C126.755268,40.4227374 126.885792,40.4812579 126.959475,40.5918331 C127.033158,40.7024083 127.036951,40.8454547 126.969231,40.9597826 L122.880879,52.0206522 C122.82709,52.2295182 122.635701,52.3731255 122.42022,52.3663043 L121.844396,52.3663043 C121.628915,52.3731255 121.437526,52.2295182 121.383736,52.0206522 L117.18022,40.9597826 Z" fill="#00263D" fill-rule="nonzero"></path>
                    <path d="M129.272527,40.9021739 C129.251594,40.7900938 129.287255,40.6748956 129.367842,40.5942713 C129.44843,40.513647 129.563575,40.4779698 129.675604,40.498913 L130.021099,40.498913 C130.243712,40.498913 130.424176,40.6794591 130.424176,40.9021739 L130.424176,51.9630435 C130.424176,52.1857583 130.243712,52.3663043 130.021099,52.3663043 L129.675604,52.3663043 C129.563575,52.3872476 129.44843,52.3515704 129.367842,52.2709461 C129.287255,52.1903218 129.251594,52.0751236 129.272527,51.9630435 L129.272527,40.9021739 Z" fill="#00263D" fill-rule="nonzero"></path>
                    <path d="M139.407033,40.2684783 C140.835175,40.2390712 142.232665,40.684851 143.38022,41.5358696 C143.465661,41.6036503 143.520008,41.7031719 143.530858,41.8117228 C143.541708,41.9202736 143.508136,42.0285912 143.437802,42.1119565 L143.265055,42.3423913 C143.197305,42.4278717 143.097829,42.4822434 142.989328,42.4930985 C142.880826,42.5039536 142.772558,42.4703657 142.689231,42.4 C141.726427,41.727645 140.581185,41.3658246 139.407033,41.3630435 C136.527912,41.3630435 134.627692,43.5521739 134.627692,46.3173913 C134.627692,49.0826087 136.527912,51.4445652 139.464615,51.4445652 C140.745289,51.4331166 141.983979,50.9861723 142.977143,50.1771739 C143.05034,50.0862067 143.164499,50.0383667 143.280647,50.0499868 C143.396795,50.0616069 143.499225,50.1311157 143.552967,50.2347826 L143.725714,50.4076087 C143.796048,50.4909741 143.82962,50.5992916 143.81877,50.7078425 C143.80792,50.8163933 143.753573,50.9159149 143.668132,50.9836957 C142.477622,51.9922463 140.967014,52.5436655 139.407033,52.5391304 C135.779341,52.5391304 133.360879,49.773913 133.360879,46.3173913 C133.312552,44.6987816 133.934023,43.1319649 135.078541,41.9869245 C136.22306,40.8418841 137.789162,40.2201289 139.407033,40.2684783 Z" fill="#00263D" fill-rule="nonzero"></path>
                    <path d="M146.432088,40.9021739 C146.411154,40.7900938 146.446815,40.6748956 146.527403,40.5942713 C146.60799,40.513647 146.723136,40.4779698 146.835165,40.498913 L152.708571,40.498913 C152.931185,40.498913 153.111648,40.6794591 153.111648,40.9021739 L153.111648,41.1326087 C153.111648,41.3553235 152.931185,41.5358696 152.708571,41.5358696 L147.583736,41.5358696 L147.583736,45.8565217 L151.672088,45.8565217 C151.784117,45.8355785 151.899263,45.8712556 151.97985,45.95188 C152.060438,46.0325043 152.096099,46.1477025 152.075165,46.2597826 L152.075165,46.4902174 C152.075165,46.7129322 151.894701,46.8934783 151.672088,46.8934783 L147.583736,46.8934783 L147.583736,51.3293478 L152.996484,51.3293478 C153.219097,51.3293478 153.39956,51.5098939 153.39956,51.7326087 L153.39956,51.9630435 C153.39956,52.1857583 153.219097,52.3663043 152.996484,52.3663043 L146.892747,52.3663043 C146.780718,52.3872476 146.665573,52.3515704 146.584985,52.2709461 C146.504398,52.1903218 146.468737,52.0751236 146.48967,51.9630435 L146.48967,40.9021739 L146.432088,40.9021739 Z" fill="#00263D" fill-rule="nonzero"></path>
                    <path d="M155.645275,50.7532609 L155.875604,50.5228261 C155.943354,50.4373457 156.04283,50.382974 156.151332,50.3721189 C156.259833,50.3612638 156.368101,50.3948517 156.451429,50.4652174 C157.227319,51.1165616 158.202724,51.4825056 159.215385,51.5021739 C160.654945,51.5021739 161.633846,50.6956522 161.633846,49.4858696 C161.633846,46.4902174 155.702857,47.1815217 155.702857,43.4945652 C155.702857,41.5358696 157.372747,40.326087 159.445714,40.326087 C160.478593,40.3217074 161.486382,40.644347 162.324835,41.2478261 C162.419194,41.3066665 162.485069,41.4018886 162.506874,41.5109669 C162.52868,41.6200451 162.50448,41.7332903 162.44,41.823913 L162.267253,42.1119565 C162.208439,42.2063589 162.11326,42.272263 162.004232,42.2940786 C161.895203,42.3158943 161.78201,42.2916836 161.691429,42.2271739 C161.018551,41.7472214 160.21448,41.4857792 159.388132,41.4782609 C158.006154,41.4782609 156.912088,42.2271739 156.912088,43.4945652 C156.912088,46.375 162.843077,45.5684783 162.843077,49.4282609 C162.843077,51.2717391 161.461099,52.7119565 159.215385,52.7119565 C157.933885,52.7051376 156.693703,52.2576549 155.702857,51.4445652 C155.574838,51.382355 155.489101,51.2572136 155.477281,51.1153192 C155.465462,50.9734248 155.529314,50.8358119 155.645275,50.7532609 L155.645275,50.7532609 Z" fill="#00263D" fill-rule="nonzero"></path>
                    <path d="M43.8202198,0.172826087 C37.1308238,0.149507309 31.0871384,4.16299463 28.5110508,10.3393308 C25.9349631,16.5156669 27.334622,23.6365324 32.0565057,28.3770886 C36.7783895,33.1176448 43.8910781,34.5427885 50.0735509,31.9870988 C56.2560236,29.4314091 60.2887506,23.3990111 60.2887912,16.7065217 C60.2888465,7.59766414 52.9248671,0.204564267 43.8202198,0.172826087 Z M43.8202198,27.8826087 C37.6506529,27.8826087 32.6492308,22.8789041 32.6492308,16.7065217 C32.6492308,10.5341394 37.6506529,5.53043478 43.8202198,5.53043478 C49.9897867,5.53043478 54.9912088,10.5341394 54.9912088,16.7065217 C54.9912088,19.6706043 53.8142687,22.5132857 51.7193019,24.6092086 C49.624335,26.7051315 46.7829503,27.8826087 43.8202198,27.8826087 L43.8202198,27.8826087 Z" fill="#00263D" fill-rule="nonzero"></path>
                    <path d="M0.345494505,2.5923913 C0.345494505,1.3826087 0.978901099,0.691304348 2.18813187,0.691304348 L10.8254945,0.691304348 C13.9925275,0.691304348 15.5472527,0.979347826 16.8716484,1.55543478 C20.0962637,2.88043478 22.2268132,5.99130435 22.2268132,10.3119565 C22.2268132,14.6326087 20.269011,17.6858696 16.9292308,19.0108696 L16.9292308,19.126087 C17.3214469,19.6525628 17.6681913,20.2114614 17.9657143,20.7967391 L23.2057143,30.4173913 C23.9542857,31.7423913 23.3784615,32.6641304 21.8813187,32.6641304 L19.5204396,32.6641304 C18.5904432,32.705431 17.7270296,32.1826 17.3323077,31.3391304 L11.6892308,20.7391304 L6.10373626,20.7391304 L6.10373626,30.7630435 C6.10373626,32.0304348 5.47032967,32.6641304 4.2610989,32.6641304 L2.18813187,32.6641304 C0.978901099,32.6641304 0.345494505,32.0304348 0.345494505,30.7630435 L0.345494505,2.5923913 Z M11.3437363,15.6695652 C14.4531868,15.6695652 16.410989,13.7108696 16.410989,10.6 C16.410989,8.58369565 15.6624176,6.97065217 13.8773626,6.22173913 C12.7779247,5.79650121 11.5981768,5.61945828 10.4224176,5.70326087 L6.10373626,5.70326087 L6.10373626,15.6695652 L11.3437363,15.6695652 Z" fill="#00263D" fill-rule="nonzero"></path>
                    <path d="M66.9107692,2.5923913 C66.9107692,1.3826087 67.5441758,0.691304348 68.7534066,0.691304348 L78.3120879,0.691304348 C84.0703297,0.691304348 88.2162637,3.68695652 88.2162637,8.92934783 C88.3167006,11.7574219 86.8272672,14.4040408 84.3582418,15.7847826 L84.3582418,15.9 C87.8131868,16.9369565 89.4830769,20.1630435 89.4830769,23.4467391 C89.4830769,29.8413043 84.4158242,32.7217391 78.4848352,32.7217391 L68.7534066,32.7217391 C67.5441758,32.7217391 66.9107692,32.0880435 66.9107692,30.8206522 L66.9107692,2.5923913 L66.9107692,2.5923913 Z M78.3120879,13.7684783 C80.8457143,13.7684783 82.2276923,11.9826087 82.2276923,9.67826087 C82.2276923,7.37391304 80.9032967,5.70326087 78.1969231,5.70326087 L72.669011,5.70326087 L72.669011,13.7684783 L78.3120879,13.7684783 L78.3120879,13.7684783 Z M78.8879121,27.6521739 C81.8821978,27.6521739 83.4945055,25.6934783 83.4945055,23.0434783 C83.4945055,20.3934783 81.767033,18.4347826 78.8879121,18.4347826 L72.669011,18.4347826 L72.669011,27.6521739 L78.8879121,27.6521739 Z" fill="#00263D" fill-rule="nonzero"></path>
                    <path d="M96.2202198,2.5923913 C96.2202198,1.3826087 96.8536264,0.691304348 98.0628571,0.691304348 L100.135824,0.691304348 C101.345055,0.691304348 101.978462,1.3826087 101.978462,2.5923913 L101.978462,30.7630435 C101.978462,32.0304348 101.345055,32.6641304 100.135824,32.6641304 L98.0628571,32.6641304 C96.8536264,32.6641304 96.2202198,32.0304348 96.2202198,30.7630435 L96.2202198,2.5923913 Z" fill="#00263D" fill-rule="nonzero"></path>
                    <path d="M110.327912,2.5923913 C110.327912,1.3826087 110.961319,0.691304348 112.170549,0.691304348 L114.589011,0.691304348 C115.52957,0.598925821 116.427289,1.10556219 116.834725,1.95869565 L128.178462,19.126087 C129.146579,20.7305164 130.030701,22.3841957 130.827253,24.0804348 L130.942418,24.0804348 C130.942418,24.0804348 130.654505,21.0271739 130.654505,19.126087 L130.654505,2.5923913 C130.599405,2.07324249 130.781824,1.55699611 131.150813,1.18783878 C131.519802,0.818681438 132.035813,0.636179114 132.554725,0.691304348 L134.57011,0.691304348 C135.089022,0.636179114 135.605033,0.818681438 135.974022,1.18783878 C136.343011,1.55699611 136.52543,2.07324249 136.47033,2.5923913 L136.47033,30.7630435 C136.549385,31.2875348 136.374792,31.8184203 135.999899,32.1934847 C135.625005,32.5685491 135.094362,32.7432218 134.57011,32.6641304 L132.151648,32.6641304 C131.234977,32.7157317 130.375221,32.2177513 129.963516,31.3967391 L118.504615,14.2293478 C117.352967,12.3282609 115.855824,9.275 115.855824,9.275 L115.740659,9.275 C115.740659,9.275 116.028571,12.3282609 116.028571,14.2293478 L116.028571,30.7630435 C116.028571,32.0304348 115.395165,32.6641304 114.185934,32.6641304 L112.112967,32.6641304 C110.903736,32.6641304 110.27033,32.0304348 110.27033,30.7630435 L110.27033,2.5923913 L110.327912,2.5923913 Z" fill="#00263D" fill-rule="nonzero"></path>
                    <path d="M143.38022,27.3641304 L144.359121,25.923913 C145.05011,24.9445652 145.856264,24.8869565 146.95033,25.5206522 C148.044396,26.1543478 150.29011,27.8826087 153.457143,27.8826087 C156.624176,27.8826087 158.236484,26.3847826 158.236484,24.2532609 C158.236484,18.2043478 143.322637,19.4141304 143.322637,9.50543478 C143.322637,3.85978261 147.986813,0.230434783 154.090549,0.230434783 C157.013462,0.208971034 159.877758,1.05061681 162.324835,2.65 C162.765707,2.89893537 163.080194,3.32344412 163.190013,3.81785579 C163.299832,4.31226746 163.194654,4.83007779 162.900659,5.2423913 L162.094505,6.74021739 C161.403516,8.06521739 160.482198,7.8923913 159.503297,7.37391304 C157.860863,6.28691592 155.944219,5.68769129 153.975385,5.64565217 C150.981099,5.64565217 149.138462,7.08586957 149.138462,9.275 C149.138462,15.2663043 164.052308,13.7108696 164.052308,23.9076087 C164.052308,29.0923913 160.194286,33.3554348 153.457143,33.3554348 C149.938303,33.3240646 146.51669,32.1964306 143.668132,30.1293478 C142.91956,29.3228261 142.516484,28.573913 143.38022,27.3641304 Z" fill="#00263D" fill-rule="nonzero"></path>
                    <path d="M207.872527,2.5923913 C207.872527,1.3826087 208.505934,0.691304348 209.715165,0.691304348 L212.133626,0.691304348 C213.074186,0.598925821 213.971904,1.10556219 214.379341,1.95869565 L225.723077,19.126087 C226.691194,20.7305164 227.575317,22.3841957 228.371868,24.0804348 L228.487033,24.0804348 C228.487033,24.0804348 228.199121,21.0271739 228.199121,19.126087 L228.199121,2.5923913 C228.144021,2.07324249 228.32644,1.55699611 228.695429,1.18783878 C229.064418,0.818681438 229.580429,0.636179114 230.099341,0.691304348 L232.114725,0.691304348 C232.633637,0.636179114 233.149648,0.818681438 233.518637,1.18783878 C233.887626,1.55699611 234.070045,2.07324249 234.014945,2.5923913 L234.014945,30.7630435 C234.094,31.2875348 233.919407,31.8184203 233.544514,32.1934847 C233.169621,32.5685491 232.638977,32.7432218 232.114725,32.6641304 L229.696264,32.6641304 C228.779592,32.7157317 227.919837,32.2177513 227.508132,31.3967391 L216.106813,14.2293478 C214.955165,12.3282609 213.458022,9.275 213.458022,9.275 L213.342857,9.275 C213.342857,9.275 213.630769,12.3282609 213.630769,14.2293478 L213.630769,30.7630435 C213.630769,32.0304348 212.997363,32.6641304 211.788132,32.6641304 L209.715165,32.6641304 C208.505934,32.6641304 207.872527,32.0304348 207.872527,30.7630435 L207.872527,2.5923913 Z" fill="#A87EB1" fill-rule="nonzero"></path>
                    <path d="M240.924835,27.3641304 L241.903736,25.923913 C242.594725,24.9445652 243.400879,24.8869565 244.494945,25.5206522 C245.589011,26.1543478 247.834725,27.8826087 251.001758,27.8826087 C254.168791,27.8826087 255.781099,26.3847826 255.781099,24.2532609 C255.781099,18.2043478 240.867253,19.4141304 240.867253,9.50543478 C240.867253,3.85978261 245.531429,0.230434783 251.635165,0.230434783 C254.558077,0.208971034 257.422374,1.05061681 259.869451,2.65 C260.310322,2.89893537 260.624809,3.32344412 260.734629,3.81785579 C260.844448,4.31226746 260.739269,4.83007779 260.445275,5.2423913 L259.639121,6.74021739 C258.948132,8.06521739 258.026813,7.8923913 257.047912,7.37391304 C255.405478,6.28691592 253.488834,5.68769129 251.52,5.64565217 C248.525714,5.64565217 246.683077,7.08586957 246.683077,9.275 C246.683077,15.2663043 261.596923,13.7108696 261.596923,23.9076087 C261.596923,29.0923913 257.738901,33.3554348 251.001758,33.3554348 C247.482918,33.3240646 244.061305,32.1964306 241.212747,30.1293478 C240.521758,29.3228261 240.061099,28.573913 240.924835,27.3641304 Z" fill="#00263D" fill-rule="nonzero"></path>
                    <path d="M200.732308,12.3858696 C199.219732,6.71794451 194.80886,2.28217467 189.15142,0.739611079 C183.49398,-0.802952511 177.443427,0.780394042 173.265495,4.89673913 C174.330858,3.8786142 176.019482,3.91730264 177.037143,4.98315217 C178.054803,6.04900171 178.016133,7.73839681 176.950769,8.75652174 L176.662857,9.10217391 C179.407423,6.10091394 183.571141,4.83872537 187.5192,5.8111837 C191.46726,6.78364203 194.569343,9.83549136 195.607473,13.7684783 C195.854339,14.6843597 196.570847,15.3989073 197.487095,15.6429577 C198.403343,15.8870081 199.380132,15.6234844 200.049513,14.9516533 C200.718895,14.2798222 200.979174,13.301751 200.732308,12.3858696 L200.732308,12.3858696 Z" fill="url(#linearGradient-1)" fill-rule="nonzero"></path>
                    <path d="M200.732308,12.5586957 C201.066227,13.9904338 200.176799,15.4219059 198.745714,15.7559781 C197.314629,16.0900504 195.88381,15.2002164 195.54989,13.7684783 L195.434725,13.3652174 C196.680334,17.2524453 195.69662,21.509972 192.87218,24.4559447 C190.04774,27.4019174 185.836818,28.5625464 181.902857,27.4793478 C180.471772,27.0975511 179.002282,27.9486967 178.620659,29.3804348 C178.239037,30.812173 179.089794,32.2823335 180.520879,32.6641304 C186.194036,34.1940457 192.252208,32.5841534 196.41877,28.4394413 C200.585333,24.2947293 202.229082,18.243091 200.732308,12.5586957 L200.732308,12.5586957 Z" fill="url(#linearGradient-2)" fill-rule="nonzero"></path>
                    <path d="M178.620659,29.3228261 C178.795977,28.6303621 179.243301,28.0380358 179.861221,27.6801293 C180.479141,27.3222229 181.215317,27.2290522 181.902857,27.4217391 L182.363516,27.5369565 C178.382728,26.6615195 175.200323,23.6762372 174.071091,19.7581763 C172.941858,15.8401155 174.047,11.6179824 176.950769,8.75652174 C178.000232,7.70658039 178.000231,6.00428923 176.950769,4.95434795 C175.901307,3.90440666 174.199792,3.90440661 173.15033,4.95434783 C169.00318,9.09971324 167.37133,15.1381716 168.865596,20.8094802 C170.359862,26.4807887 174.754938,30.9298344 180.405714,32.4913043 C179.06581,32.0748321 178.282968,30.6852837 178.620659,29.3228261 L178.620659,29.3228261 Z" fill="url(#linearGradient-3)" fill-rule="nonzero"></path>
                </g>
            </g>
        </g>
    </g>
</svg>