<?xml version="1.0" encoding="UTF-8"?>
<svg width="75px" height="75px" viewBox="0 0 75 75" version="1.1" xmlns="http://www.w3.org/2000/svg" xmlns:xlink="http://www.w3.org/1999/xlink">
    <!-- Generator: Sketch 47.1 (45422) - http://www.bohemiancoding.com/sketch -->
    <title>Robinsons_365_Icon-01</title>
    <desc>Created with Sketch.</desc>
    <defs>
        <linearGradient x1="100.008388%" y1="50.019992%" x2="0.158141605%" y2="50.019992%" id="linearGradient-1">
            <stop stop-color="#A87EB1" offset="0%"></stop>
            <stop stop-color="#904281" offset="71%"></stop>
            <stop stop-color="#782F67" offset="82%"></stop>
            <stop stop-color="#5B1949" offset="94%"></stop>
        </linearGradient>
        <linearGradient x1="23699%" y1="5180.44925%" x2="5367%" y2="1620.40611%" id="linearGradient-2">
            <stop stop-color="#A87EB1" offset="0%"></stop>
            <stop stop-color="#904281" offset="71%"></stop>
            <stop stop-color="#782F67" offset="82%"></stop>
            <stop stop-color="#5B1949" offset="94%"></stop>
        </linearGradient>
        <linearGradient x1="10197.0771%" y1="2193%" x2="17249.7651%" y2="33032%" id="linearGradient-3">
            <stop stop-color="#A87EB1" offset="0%"></stop>
            <stop stop-color="#904281" offset="71%"></stop>
            <stop stop-color="#782F67" offset="82%"></stop>
            <stop stop-color="#5B1949" offset="94%"></stop>
        </linearGradient>
    </defs>
    <g id="Symbols" stroke="none" stroke-width="1" fill="none" fill-rule="evenodd">
        <g id="Header-new" transform="translate(-1087.000000, 7.000000)">
            <g id="Robinsons_365_Icon-01" transform="translate(1087.000000, -7.000000)">
                <g id="Shape">
                    <path d="M59.4003201,16.9447829 C59.1583036,17.1793389 58.7742092,17.1722829 58.5407916,16.928993 C47.335061,5.4137047 29.098507,4.98698893 17.3771906,15.965809 C17.1351741,16.200365 16.7510796,16.193309 16.5176621,15.9500191 L16.3613842,15.7921201 C16.2441136,15.6713048 16.1797311,15.5079957 16.1826689,15.3388015 C16.1856068,15.1696072 16.2556193,15.0086804 16.377012,14.8920956 C28.6757502,3.36861669 47.8145552,3.81636979 59.5722258,15.9026494 C59.6894963,16.0234647 59.7538789,16.1867737 59.750941,16.355968 C59.7480032,16.5251622 59.6779907,16.686089 59.556598,16.8026738 L59.4003201,16.9447829 Z" fill="#A87EB1" fill-rule="nonzero"></path>
                    <path d="M65.3781682,49.4389584 L65.1688395,49.360988 C64.8486913,49.2318024 64.6972979,48.8757352 64.830693,48.5656897 C67.9210943,41.0304115 67.6824329,32.596984 64.1705024,25.236942 C64.020181,24.9354598 64.1497314,24.5730134 64.4603422,24.4260497 L64.6535687,24.3324852 C64.9738017,24.1878101 65.3546009,24.3200151 65.5069859,24.6287728 C69.194063,32.3525843 69.4443842,41.203803 66.199381,49.1114826 C66.0595334,49.4151752 65.698279,49.5592329 65.3781682,49.4389584 Z" fill="#A87EB1" fill-rule="nonzero"></path>
                    <path d="M37.4841726,68.464717 C22.22289,68.464717 9.16410567,57.3183181 6.85226347,42.4357826 C6.80588381,42.0978653 7.04315617,41.7861989 7.38336235,41.7381638 L7.60205013,41.7071585 C7.93393711,41.6610427 8.24103406,41.8896268 8.28935457,42.2187456 C10.4918529,56.4036623 22.9414355,67.0229714 37.4841726,67.0229714 C42.8811695,67.0304685 48.1765404,65.5664648 52.7923169,62.7907504 C52.9288964,62.7039278 53.0947233,62.674743 53.2530559,62.7096624 C53.4113886,62.7445819 53.5491536,62.8407223 53.6358269,62.9767821 L53.7451708,63.1628138 C53.9259924,63.4539729 53.8351377,63.8354568 53.5421036,64.015459 C48.7013691,66.9308211 43.146487,68.4699424 37.4841726,68.464717 L37.4841726,68.464717 Z" fill="#A87EB1" fill-rule="nonzero"></path>
                    <path d="M74.6887967,37.6549795 C74.6887967,58.2484019 57.9143608,75 37.2928631,75 C31.2666669,74.9964071 25.3304442,73.5397173 19.9888722,70.7537732 L19.8331207,70.6760035 C19.3425146,70.4535775 19.0160767,69.9775927 18.9857132,69.4403839 C18.9553497,68.9031751 19.2260789,68.3935298 19.6885053,68.1173841 C20.1509316,67.8412384 20.7286274,67.8442325 21.1881587,68.1251566 C26.1525762,70.7397444 31.6803625,72.1064627 37.2928631,72.1069663 C56.3256956,72.1069663 71.7918189,56.6463456 71.7918189,37.6394256 C71.7918189,37.1416993 71.7762438,36.6595271 71.7606686,36.1618008 C71.7940561,36.9362937 72.4328907,37.5468192 73.2091575,37.5461019 L73.2714581,37.5461019 C74.0470069,37.5127598 74.6583647,36.874795 74.6576464,36.0995851 C74.6732215,36.6284192 74.6887967,37.1261454 74.6887967,37.6549795 Z" fill="url(#linearGradient-1)" fill-rule="nonzero"></path>
                    <path d="M19.2260527,68.6985789 C18.862029,69.4034324 19.1315766,70.2712951 19.8300139,70.6431535 C8.45532788,64.6173848 0.989568379,53.1131722 0.0910709635,40.2268245 C-0.807426452,27.3404769 4.98901389,14.9031326 15.4164515,7.34336108 C16.0555567,6.98252179 16.8625102,7.16155096 17.2908834,7.75921899 C17.7192567,8.35688703 17.6323272,9.18243822 17.0889593,9.67685061 C7.47512737,16.6554843 2.13250225,28.1281939 2.96144705,40.0141552 C3.79039185,51.9001166 10.6732597,62.5124308 21.1618257,68.0763151 C20.4560719,67.7129827 19.5907157,67.9911558 19.2260527,68.6985789 Z" fill="url(#linearGradient-2)" fill-rule="nonzero"></path>
                    <path d="M74.9999994,35.8313579 L74.9999994,35.8937513 C75.00072,36.6711743 74.3873814,37.3109605 73.6093198,37.3443977 L73.5468173,37.3443977 C72.7680354,37.3451171 72.1271309,36.7328487 72.0936353,35.9561447 L72.0936353,35.9093497 C71.5283521,23.2219287 64.0359356,11.8668427 52.5821889,6.33889617 C41.1284422,0.81094964 27.5599728,2.00137479 17.2477322,9.43895298 C17.7959923,8.94321368 17.8837044,8.11544685 17.4514743,7.51617477 C17.0192442,6.91690269 16.2050253,6.73739304 15.560166,7.09920077 C26.741318,-0.970972649 41.4586172,-2.26025501 53.876919,3.74253097 C66.2952208,9.74531696 74.4085046,22.0704967 74.9999994,35.8313579 Z" fill="url(#linearGradient-3)" fill-rule="nonzero"></path>
                    <path d="M47.6141046,52.2909977 C47.6160728,50.3247348 46.7365019,48.4616122 45.2183049,47.2161729 C43.700108,45.9707335 41.7039274,45.4747589 39.7810533,45.8652237 L42.0521747,42.0097592 C42.1330213,41.8832622 42.1368676,41.7221757 42.062151,41.5919478 C41.9874343,41.4617199 41.8465851,41.3840164 41.6968291,41.3904075 L40.2599972,41.3904075 C40.0450754,41.387554 39.844911,41.4996567 39.7347039,41.6845996 L35.4551078,48.9310146 L35.4551078,48.9310146 C34.0525902,51.3054658 34.2853652,54.3061818 36.0372049,56.4348617 C37.7890446,58.5635417 40.6841701,59.3635725 43.2770035,58.4354873 C45.8698369,57.5074022 47.6042017,55.0502801 47.6141046,52.2909977 Z M41.0788369,56.6883948 C38.6555524,56.6883948 36.6910922,54.719613 36.6910922,52.2909977 C36.6910922,49.8623823 38.6555524,47.8936005 41.0788369,47.8936005 C43.5021214,47.8936005 45.4665816,49.8623823 45.4665816,52.2909977 C45.4665816,54.719613 43.5021214,56.6883948 41.0788369,56.6883948 L41.0788369,56.6883948 Z" fill="#00263D" fill-rule="nonzero"></path>
                    <path d="M50.1064501,15.4899916 L49.3018548,15.0215345 C49.1608891,14.9380421 48.9923926,14.9158298 48.8349056,14.9599784 C48.6774187,15.004127 48.5444139,15.1108595 48.4663136,15.2557631 L32.7302868,43.5818058 C32.6577186,43.7085942 32.6584193,43.864994 32.7321207,43.9911149 C32.8058221,44.1172357 32.9411051,44.1935369 33.0861655,44.1908001 L34.4942072,44.1908001 C34.7126536,44.1904678 34.9138663,44.0710192 35.0202887,43.8784954 L50.3385449,16.3175993 C50.5004389,16.0243257 50.3966252,15.6541448 50.1064501,15.4899916 L50.1064501,15.4899916 Z" fill="#00263D" fill-rule="nonzero"></path>
                    <path d="M61.5189399,20.5395951 L51.3822302,20.5395951 C51.1578789,20.5341698 50.9490121,20.6545247 50.8397458,20.8521898 L50.1577653,22.1025687 C50.0850725,22.2294747 50.0857744,22.3860197 50.1596024,22.5122577 C50.2334303,22.6384956 50.3689456,22.7148676 50.5142551,22.7121283 L58.5275256,22.7121283 L55.3036179,28.52639 L52.0642107,28.52639 C51.7450019,28.5432313 51.4973784,28.8137432 51.5062267,29.1359497 L51.5062267,30.0737339 C51.4973784,30.3959404 51.7450019,30.6664523 52.0642107,30.6832936 L54.0946526,30.6832936 L50.5607538,37.044596 C50.4484151,37.2341932 50.446568,37.470236 50.5559255,37.6615974 C50.6652831,37.8529587 50.8687359,37.9696994 51.0877387,37.9667504 L52.157208,37.9667504 C52.3760295,37.9664177 52.5775877,37.8468583 52.684193,37.6541557 L56.559082,30.6832936 L59.9689843,30.6832936 C60.2881931,30.6664523 60.5358166,30.3959404 60.5269683,30.0737339 L60.5269683,29.1359497 C60.5358166,28.8137432 60.2881931,28.5432313 59.9689843,28.52639 L57.7680473,28.52639 L61.8754297,21.1491548 C61.9481225,21.0222487 61.9474206,20.8657037 61.8735926,20.7394658 C61.7997647,20.6132278 61.6642494,20.5368558 61.5189399,20.5395951 L61.5189399,20.5395951 Z" fill="#00263D" fill-rule="nonzero"></path>
                    <path d="M51.7148714,55.7269475 C51.4725767,55.5479728 51.1352578,55.574383 50.9238774,55.788878 L50.2569609,56.4546307 C50.1361812,56.5804283 50.0740769,56.7511979 50.0858838,56.9250455 C50.0976907,57.0988931 50.1823162,57.2597323 50.3189996,57.3681052 C52.8443512,59.399205 56.477412,59.2836246 58.8680856,57.0961289 C61.2587591,54.9086332 61.6896419,51.3056553 59.8820112,48.6178322 C58.0743805,45.9300091 54.570678,44.9639143 51.6373229,46.3444799 L51.6373229,43.526643 L58.6166816,43.526643 C58.9507464,43.526643 59.2215593,43.2563026 59.2215593,42.9228209 L59.2215593,41.9938637 C59.2215593,41.6603819 58.9507464,41.3900415 58.6166816,41.3900415 L50.0863544,41.3900415 C49.7522896,41.3900415 49.4814766,41.6603819 49.4814766,41.9938637 L49.4814766,49.5338996 C49.4759763,49.7822345 49.6233824,50.0085953 49.8529699,50.1043749 C50.0825575,50.2001545 50.3474789,50.1458089 50.5206256,49.9674129 L51.3116195,49.1777993 C52.9782217,47.4988443 55.6762888,47.4355211 57.4200913,49.0344344 C59.1638938,50.6333478 59.3294658,53.3223759 57.7949492,55.1224418 C56.2604327,56.9225078 53.574907,57.1895135 51.7148714,55.7269475 Z" fill="#00263D" fill-rule="nonzero"></path>
                    <path d="M30.69299,49.2356842 C30.0124656,47.9703894 28.9415354,46.9588821 27.6397369,46.3518475 L30.1970301,42.010588 C30.2781329,41.8839217 30.2819914,41.7226199 30.207038,41.5922178 C30.1320847,41.4618158 29.9907893,41.3840084 29.840559,41.390408 L22.0911854,41.390408 C21.7573563,41.390408 21.4867343,41.6611304 21.4867343,41.9950835 L21.4867343,42.9253534 C21.4867343,43.2593064 21.7573563,43.5300288 22.0911854,43.5300288 L26.7873058,43.5300288 L24.7724687,46.925514 C24.66657,47.0952544 24.6514639,47.3064096 24.7321206,47.4895062 C24.8127773,47.6726027 24.9787518,47.80393 25.1754361,47.8402794 L25.8108847,47.9798198 C27.5841139,48.360116 28.9426831,49.789446 29.233056,51.5802341 C29.5234288,53.3710223 28.6861615,55.1566672 27.1240196,56.0781888 C25.5618776,56.9997104 23.5946549,56.8684593 22.1686792,55.7475736 C21.9303072,55.5642563 21.5934867,55.5840766 21.3782431,55.794087 L20.711797,56.4607805 C20.5911024,56.5867558 20.529042,56.7577668 20.5408405,56.9318601 C20.5526391,57.1059533 20.6372049,57.2670198 20.773792,57.3755459 C23.1916627,59.3151414 26.6369501,59.295996 29.0331317,57.3296488 C31.4293133,55.3633017 32.1217039,51.9869986 30.69299,49.2356842 Z" fill="#00263D" fill-rule="nonzero"></path>
                    <path d="M30.2098975,20.8674237 L23.7053115,32.5949445 C23.6328496,32.721738 23.6335493,32.8781442 23.7071428,33.0042702 C23.7807362,33.1303962 23.915821,33.2067004 24.060669,33.2039636 L30.8279104,33.2039636 L30.8279104,37.3577859 C30.8279104,37.6941379 31.0976869,37.966805 31.430473,37.966805 L32.3574924,37.966805 C32.6902785,37.966805 32.960055,37.6941379 32.960055,37.3577859 L32.960055,33.2039636 L35.4475569,33.2039636 C35.6656833,33.2036312 35.8666013,33.0841778 35.9728679,32.8916461 L36.6681325,31.6423763 C36.7405944,31.5155828 36.7398946,31.3591766 36.6663012,31.2330506 C36.5927078,31.1069246 36.4576229,31.0306204 36.312775,31.0333572 L32.9755053,31.0333572 L32.9755053,28.2225 C32.9755053,27.8861481 32.7057288,27.6134809 32.3729427,27.6134809 L31.4459233,27.6134809 C31.1131372,27.6134809 30.8433607,27.8861481 30.8433607,28.2225 L30.8433607,31.0333572 L27.027131,31.0333572 L32.5119956,21.1485094 C32.5844575,21.0217159 32.5837578,20.8653097 32.5101644,20.7391837 C32.4365709,20.6130577 32.3014861,20.5367535 32.1566382,20.5394903 L30.7506588,20.5394903 C30.5236808,20.53713 30.3146501,20.6638923 30.2098975,20.8674237 L30.2098975,20.8674237 Z" fill="#00263D" fill-rule="nonzero"></path>
                    <path d="M20.9902206,27.5529559 C21.6476924,24.932855 20.369848,22.2102858 17.9463111,21.0676166 C15.5227741,19.9249474 12.6378442,20.6848174 11.0742178,22.8776771 C10.9739949,23.0242004 10.9403373,23.2069674 10.9816888,23.3801277 C11.0230402,23.553288 11.1354769,23.7004107 11.290792,23.7845873 L12.1261495,24.2380425 C12.3903315,24.3837233 12.7203271,24.3103415 12.8996286,24.0660422 C13.8670284,22.720583 15.6482216,22.2674309 17.1304997,22.9896694 C18.6127777,23.7119079 19.3715304,25.4026461 18.9327661,27.0056824 C18.7775573,27.5619586 18.4908714,28.0717516 18.0974086,28.4911389 L9.75930326,37.2787867 C9.64725289,37.3968239 9.61610947,37.5712465 9.68026892,37.7214283 C9.74442838,37.8716102 9.89139157,37.9682938 10.0532253,37.9667876 L20.5106636,37.9667876 C20.8438645,37.9667876 21.1139773,37.6937624 21.1139773,37.3569687 L21.1139773,36.4187856 C21.1139773,36.0819919 20.8438645,35.8089666 20.5106636,35.8089666 L14.1062561,35.8089666 L19.6288973,29.9922318 C20.2744931,29.3048703 20.7421173,28.4669616 20.9902206,27.5529559 L20.9902206,27.5529559 Z" fill="#00263D" fill-rule="nonzero"></path>
                </g>
            </g>
        </g>
    </g>
</svg>