<?xml version="1.0" encoding="UTF-8"?>
<svg width="46px" height="46px" viewBox="0 0 46 46" version="1.1" xmlns="http://www.w3.org/2000/svg" xmlns:xlink="http://www.w3.org/1999/xlink">
    <!-- Generator: Sketch 47.1 (45422) - http://www.bohemiancoding.com/sketch -->
    <title>services-icon</title>
    <desc>Created with Sketch.</desc>
    <defs></defs>
    <g id="Page-1" stroke="none" stroke-width="1" fill="none" fill-rule="evenodd">
        <g id="About" transform="translate(-737.000000, -1539.000000)" fill="#A97EB1">
            <g id="services-icon" transform="translate(737.000000, 1539.000000)">
                <path d="M43.5175614,43.5168682 L43.5172235,43.5173188 L43.5154209,43.5173188 C43.1571738,43.8781126 42.6691466,44.0800805 42.1609539,44.0782783 C41.650846,44.0805311 41.1614669,43.8781126 40.8015299,43.5173188 L28.9836555,31.6942534 L31.7023908,28.9758529 L43.5172235,40.7980172 C44.2684159,41.5486665 44.2684159,42.7657683 43.5175614,43.5168682 L43.5175614,43.5168682 Z M22.2506373,20.8928552 L30.8143209,12.3324787 C31.0924694,12.0552656 31.1738073,11.6363483 31.0198061,11.2751039 C29.5702571,7.85358919 31.1694137,3.90456979 34.5918003,2.4550866 C35.8081507,1.94031055 37.1485358,1.79421328 38.4472379,2.03583136 L34.7365637,5.92503761 C34.3743736,6.30351628 34.3819216,6.90142247 34.7528989,7.27055181 L38.5981974,11.1153769 C38.9634293,11.4805638 39.55127,11.4920533 39.9306965,11.1413973 L43.8247752,7.53807766 C44.2313519,9.65282722 43.5752415,11.8089166 41.9733811,13.4100165 C40.0376074,15.3540001 37.1124857,15.9225066 34.5895472,14.8454194 C34.2279204,14.6913245 33.8094021,14.772765 33.5321549,15.0508792 L24.9702738,23.6112557 L22.2506373,20.8928552 Z M15.0481801,33.5321278 C14.7700316,33.8093409 14.6885811,34.2282583 14.8425823,34.5895026 C15.9309551,37.1586519 15.3953869,40.0566045 13.479328,41.9724275 C11.9271491,43.5344405 9.70263721,44.2269663 7.53839645,43.8217914 L11.1394561,39.9289806 C11.4902679,39.550164 11.4783263,38.9618324 11.1135451,38.5966455 L7.26824656,34.7518204 C6.89862114,34.3808888 6.30052868,34.373905 5.92211607,34.7355999 L2.03457141,38.440861 C1.35683093,34.7875281 3.76970422,31.2762373 7.42405027,30.5985802 C8.72128792,30.3578633 10.0608843,30.5039606 11.2758829,31.0183987 C11.6371717,31.1723809 12.0561406,31.0909404 12.3333878,30.8128262 L20.8939171,22.2512106 L23.6126523,24.9694985 L15.0481801,33.5321278 Z M6.58836561,8.11537027 L2.17978542,3.70744548 L3.70458886,2.18282977 L8.11226779,6.59120513 L6.58836561,8.11537027 Z M44.8739436,39.4370709 L44.873493,39.4366204 L44.8756335,39.4366204 L32.2435918,26.8044442 C31.8682209,26.4291195 31.2596514,26.4291195 30.8842805,26.8044442 L29.5248566,28.1635881 L26.3291344,24.9703997 L34.4518812,16.848315 C37.5653642,17.9060277 41.0092682,17.0990571 43.3288621,14.7679214 C45.8433514,12.2546428 46.5500445,8.67204931 45.1736095,5.41949825 C44.9663218,4.93062997 44.4021389,4.70185313 43.9132105,4.90911526 C43.8106932,4.95259525 43.7169631,5.01330953 43.635062,5.0885547 L39.2995957,9.10279408 L36.7723763,6.57588575 L40.9058497,2.23870043 C41.2737853,1.8558287 41.2618437,1.24733413 40.8790375,0.879443851 C40.7953338,0.799355061 40.6981114,0.734698289 40.5916512,0.689416019 C36.1927595,-1.17673163 31.1139868,0.875951935 29.247722,5.27430211 C28.4208245,7.22267876 28.3371209,9.40636552 29.0122703,11.4124151 L20.8922273,19.5337113 L9.38979058,8.0326907 L10.1520233,7.27055181 C10.5273942,6.89522713 10.5273942,6.28673256 10.1520233,5.91140787 L5.0640128,0.8249249 C4.33873134,0.0980430982 3.07179825,0.0971419585 2.34437632,0.8249249 L0.819572885,2.34909004 C0.0688310979,3.10018997 0.0688310979,4.31684119 0.819572885,5.06749056 L5.90803403,10.1553252 C6.28340492,10.5306499 6.89197442,10.5306499 7.26734531,10.1553252 L8.02957805,9.39318635 L19.5319021,20.8928552 L11.4105072,29.0153904 C6.88138472,27.4921264 1.97520153,29.9284702 0.451637309,34.4565845 C-0.222948798,36.4612824 -0.139357801,38.6432795 0.685737165,40.5903045 C0.894827314,41.0782716 1.45979881,41.3049082 1.94782604,41.0959565 C2.0539483,41.0505616 2.15117071,40.9863553 2.23476171,40.9067171 L6.57203044,36.773302 L9.09936256,39.3002103 L5.08688203,43.6364945 C4.72638178,44.0258995 4.74981429,44.6340562 5.1396052,44.99485 C5.22105572,45.0700951 5.31523642,45.1308094 5.41775368,45.1744021 C8.63995005,46.544585 12.371691,45.813648 14.8386393,43.3289806 C17.1591344,41.0092218 17.9147204,37.5863553 16.8479776,34.4517409 L24.9702738,26.3305574 L28.164644,29.5245344 L26.8053327,30.8819887 C26.4299618,31.2573133 26.4299618,31.8658079 26.8053327,32.2411326 L39.4382757,44.8760122 C40.1581496,45.5985009 41.1369078,46.0033379 42.1568983,45.999846 C43.1779026,46.0090827 44.1583506,45.6024434 44.873493,44.8743225 C46.3754272,43.3729112 46.3754272,40.9383697 44.8739436,39.4370709 L44.8739436,39.4370709 Z" id="Fill-1"></path>
            </g>
        </g>
    </g>
</svg>